<svg width="12" height="20" viewBox="0 0 12 20" fill="none" xmlns="http://www.w3.org/2000/svg">
<path d="M6.75 1C6.75 0.585786 6.41421 0.25 6 0.25C5.58579 0.25 5.25 0.585786 5.25 1L6 1L6.75 1ZM5.46967 19.5303C5.76256 19.8232 6.23744 19.8232 6.53033 19.5303L11.3033 14.7574C11.5962 14.4645 11.5962 13.9896 11.3033 13.6967C11.0104 13.4038 10.5355 13.4038 10.2426 13.6967L6 17.9393L1.75736 13.6967C1.46447 13.4038 0.989592 13.4038 0.696699 13.6967C0.403805 13.9896 0.403805 14.4645 0.696699 14.7574L5.46967 19.5303ZM6 1L5.25 1L5.25 19L6 19L6.75 19L6.75 1L6 1Z" fill="white"/>
</svg>
