<svg width="176" height="36" viewBox="0 0 176 36" fill="none" xmlns="http://www.w3.org/2000/svg">
<mask id="mask0_6474_23" style="mask-type:luminance" maskUnits="userSpaceOnUse" x="0" y="0" width="37" height="36">
<path d="M36.2887 0H0V36H36.2887V0Z" fill="white"/>
</mask>
<g mask="url(#mask0_6474_23)">
<mask id="mask1_6474_23" style="mask-type:luminance" maskUnits="userSpaceOnUse" x="0" y="0" width="37" height="36">
<path d="M36.2887 0H0V36H36.2887V0Z" fill="white"/>
</mask>
<g mask="url(#mask1_6474_23)">
<mask id="mask2_6474_23" style="mask-type:luminance" maskUnits="userSpaceOnUse" x="0" y="0" width="37" height="36">
<path d="M36.2887 0H0V36H36.2887V0Z" fill="white"/>
</mask>
<g mask="url(#mask2_6474_23)">
<path d="M2.28619 9.36005L21.7006 0.360047C22.9707 -0.215953 23.9868 0.432047 23.9868 1.80004V19.0801C23.9868 20.4841 22.9707 22.0681 21.7006 22.6801L2.28619 31.68C1.01608 32.292 0 31.644 0 30.24V12.9601C0 11.5561 1.01608 9.97205 2.28619 9.36005Z" fill="#9583ED"/>
<path d="M14.6243 13.2839L34.0388 4.28388C35.3089 3.70788 36.3249 4.35588 36.3249 5.72388V23.0039C36.3249 24.4079 35.3089 25.9919 34.0388 26.6039L14.6243 35.6039C13.3542 36.1799 12.3381 35.5319 12.3381 34.1639V16.8839C12.3381 15.4799 13.3542 13.8599 14.6243 13.2839Z" fill="#F768B1"/>
<path fill-rule="evenodd" clip-rule="evenodd" d="M24.0231 8.96411V19.1521C24.0231 20.5561 23.007 22.1401 21.7369 22.7521L12.3381 27.0361V16.8841C12.3381 15.4801 13.3542 13.8961 14.6243 13.2841L24.0231 8.96411Z" fill="#FD9D60"/>
</g>
</g>
</g>
<path d="M52.595 24.2999V11.0699H57.2531C58.1866 11.0699 59.009 11.2274 59.7203 11.5424C60.4315 11.8574 60.9872 12.3142 61.3873 12.9127C61.7937 13.5049 61.9969 14.2168 61.9969 15.0484C61.9969 15.8989 61.8096 16.6171 61.4349 17.203C61.0602 17.7889 60.5172 18.2362 59.806 18.5449C59.0947 18.8473 58.2311 18.9985 57.215 18.9985H54.3858V24.2999H52.595ZM54.3858 17.4392H57.2721C58.2057 17.4392 58.9264 17.2439 59.4345 16.8533C59.9489 16.4627 60.2061 15.8737 60.2061 15.0862C60.2061 14.3176 59.9425 13.7191 59.4154 13.2907C58.8947 12.8623 58.1866 12.6481 57.2912 12.6481H54.3858V17.4392ZM64.2445 24.2999V15.0389H65.9973V16.3808C66.372 15.776 66.8165 15.3539 67.3309 15.1145C67.8516 14.8688 68.4041 14.746 68.9884 14.746C69.1725 14.746 69.3504 14.7554 69.5218 14.7743C69.6933 14.7932 69.8616 14.8184 70.0267 14.8499L69.7695 16.6549C69.5917 16.6045 69.4107 16.5667 69.2265 16.5415C69.0424 16.51 68.8614 16.4942 68.6835 16.4942C67.9024 16.4942 67.2579 16.7368 66.7498 17.2219C66.2481 17.7007 65.9973 18.3433 65.9973 19.1497V24.2999H64.2445ZM75.8874 24.5834C74.8967 24.5834 74.0235 24.3787 73.2678 23.9692C72.5121 23.5597 71.9215 22.9895 71.496 22.2587C71.0705 21.5216 70.8578 20.6648 70.8578 19.6883C70.8578 18.9827 70.9784 18.3275 71.2198 17.7227C71.4674 17.1179 71.8104 16.595 72.2485 16.154C72.6931 15.713 73.2106 15.3697 73.8012 15.124C74.3982 14.8783 75.0459 14.7554 75.7445 14.7554C76.5002 14.7554 77.1734 14.8877 77.764 15.1523C78.3609 15.4169 78.8531 15.7886 79.2405 16.2674C79.6342 16.7399 79.9168 17.2975 80.0883 17.9401C80.2597 18.5764 80.2946 19.2694 80.193 20.0191H72.5915C72.5724 20.6365 72.6994 21.1783 72.9725 21.6445C73.2456 22.1044 73.6393 22.4635 74.1537 22.7218C74.6744 22.9801 75.2904 23.1092 76.0017 23.1092C76.5224 23.1092 77.0305 23.0273 77.5258 22.8635C78.0212 22.6997 78.4594 22.4572 78.8404 22.1359L79.5834 23.4305C79.2786 23.6762 78.9166 23.8873 78.4974 24.0637C78.0847 24.2338 77.6528 24.3629 77.202 24.4511C76.7511 24.5393 76.3129 24.5834 75.8874 24.5834ZM72.6867 18.6677H78.4403C78.4149 17.8865 78.1704 17.2786 77.7068 16.8439C77.2432 16.4029 76.5796 16.1824 75.7159 16.1824C74.8777 16.1824 74.1855 16.4029 73.6393 16.8439C73.0932 17.2786 72.7756 17.8865 72.6867 18.6677ZM85.4786 24.574C84.7419 24.574 84.0434 24.4669 83.3829 24.2527C82.7288 24.0322 82.1827 23.7392 81.7445 23.3738L82.4684 22.0603C82.8812 22.4005 83.3512 22.6682 83.8782 22.8635C84.4117 23.0525 84.9451 23.147 85.4786 23.147C86.139 23.147 86.6534 23.0305 87.0217 22.7974C87.3901 22.558 87.5742 22.2209 87.5742 21.7862C87.5742 21.383 87.4155 21.0838 87.098 20.8885C86.7804 20.6932 86.1898 20.4916 85.3262 20.2837C84.1831 20.0254 83.3511 19.6789 82.8304 19.2442C82.316 18.8095 82.0588 18.211 82.0588 17.4487C82.0588 16.9069 82.2112 16.4281 82.5161 16.0123C82.8209 15.5902 83.2368 15.2594 83.7639 15.02C84.2974 14.7806 84.9102 14.6609 85.6024 14.6609C86.2883 14.6609 86.9265 14.7586 87.5171 14.9539C88.114 15.1429 88.6316 15.4201 89.0698 15.7855L88.3935 17.1085C88.1712 16.9006 87.9076 16.721 87.6028 16.5698C87.3043 16.4186 86.9836 16.3021 86.6407 16.2202C86.2978 16.132 85.9549 16.0879 85.6119 16.0879C85.0467 16.0879 84.5832 16.2013 84.2212 16.4281C83.8655 16.6549 83.6877 16.9699 83.6877 17.3731C83.6877 17.7952 83.8592 18.1039 84.2021 18.2992C84.5514 18.4945 85.1293 18.6866 85.9358 18.8756C87.1043 19.1339 87.9426 19.4804 88.4506 19.9151C88.9587 20.3435 89.2127 20.9357 89.2127 21.6917C89.2127 22.2776 89.0571 22.7879 88.7459 23.2226C88.4347 23.651 87.9997 23.9849 87.4409 24.2243C86.882 24.4574 86.2279 24.574 85.4786 24.574ZM95.9064 24.5834C94.9157 24.5834 94.043 24.3787 93.2873 23.9692C92.5315 23.5597 91.9409 22.9895 91.5155 22.2587C91.09 21.5216 90.8768 20.6648 90.8768 19.6883C90.8768 18.9827 90.9974 18.3275 91.2388 17.7227C91.4864 17.1179 91.8294 16.595 92.2675 16.154C92.7121 15.713 93.2301 15.3697 93.8207 15.124C94.4176 14.8783 95.0654 14.7554 95.764 14.7554C96.5197 14.7554 97.1928 14.8877 97.7834 15.1523C98.3804 15.4169 98.8721 15.7886 99.2595 16.2674C99.6532 16.7399 99.9362 17.2975 100.108 17.9401C100.279 18.5764 100.314 19.2694 100.212 20.0191H92.6105C92.5914 20.6365 92.7184 21.1783 92.9915 21.6445C93.2646 22.1044 93.6583 22.4635 94.1727 22.7218C94.6934 22.9801 95.3094 23.1092 96.0207 23.1092C96.5414 23.1092 97.0495 23.0273 97.5448 22.8635C98.0402 22.6997 98.4784 22.4572 98.8594 22.1359L99.6024 23.4305C99.2976 23.6762 98.9356 23.8873 98.5165 24.0637C98.1037 24.2338 97.6718 24.3629 97.2209 24.4511C96.7701 24.5393 96.3319 24.5834 95.9064 24.5834ZM92.7057 18.6677H98.4593C98.4339 17.8865 98.1899 17.2786 97.7263 16.8439C97.2627 16.4029 96.5986 16.1824 95.7349 16.1824C94.8967 16.1824 94.2045 16.4029 93.6583 16.8439C93.1122 17.2786 92.7946 17.8865 92.7057 18.6677ZM102.478 24.2999V15.0389H104.231V16.2863C104.631 15.7445 105.097 15.3539 105.631 15.1145C106.164 14.8751 106.71 14.7554 107.269 14.7554C108.114 14.7554 108.812 14.9255 109.365 15.2657C109.924 15.5996 110.34 16.028 110.613 16.5509C110.893 17.0738 111.032 17.6093 111.032 18.1574V24.2999H109.28V18.6961C109.28 17.9968 109.06 17.4361 108.622 17.014C108.184 16.5856 107.587 16.3714 106.831 16.3714C106.336 16.3714 105.891 16.4816 105.497 16.7021C105.11 16.9163 104.803 17.2219 104.574 17.6188C104.345 18.0157 104.231 18.4724 104.231 18.989V24.2999H102.478ZM117.629 24.5834C116.759 24.5834 116.057 24.3314 115.524 23.8274C114.997 23.3234 114.733 22.5454 114.733 21.4933V12.3173H116.486V15.0389H119.22V16.5131H116.486V21.0586C116.486 21.7642 116.613 22.2619 116.867 22.5517C117.127 22.8352 117.505 22.9769 118.001 22.9769C118.223 22.9769 118.433 22.9517 118.629 22.9013C118.833 22.8509 119.01 22.7848 119.163 22.7029L119.525 24.1298C119.264 24.2684 118.969 24.3787 118.639 24.4606C118.308 24.5425 117.972 24.5834 117.629 24.5834ZM112.599 16.5131V15.0389H115V16.5131H112.599ZM125.725 24.5834C124.785 24.5834 123.953 24.3661 123.229 23.9314C122.505 23.4967 121.94 22.9108 121.533 22.1737C121.127 21.4303 120.924 20.5955 120.924 19.6694C120.924 18.9764 121.042 18.3307 121.277 17.7322C121.512 17.1337 121.842 16.6139 122.267 16.1729C122.693 15.7256 123.197 15.3791 123.782 15.1334C124.372 14.8814 125.02 14.7554 125.725 14.7554C126.665 14.7554 127.446 14.9507 128.068 15.3413C128.69 15.7319 129.177 16.2296 129.526 16.8344L129.268 17.2124V15.0389H130.869V24.2999H129.268V22.1264L129.526 22.495C129.177 23.0998 128.69 23.6006 128.068 23.9975C127.446 24.3881 126.665 24.5834 125.725 24.5834ZM125.915 23.0147C126.538 23.0147 127.09 22.8793 127.573 22.6084C128.055 22.3312 128.434 21.9437 128.707 21.446C128.986 20.942 129.126 20.3498 129.126 19.6694C129.126 18.9827 128.986 18.3905 128.707 17.8928C128.434 17.3888 128.055 17.0014 127.573 16.7305C127.09 16.4596 126.538 16.3241 125.915 16.3241C125.293 16.3241 124.74 16.4596 124.258 16.7305C123.775 17.0014 123.394 17.3888 123.115 17.8928C122.835 18.3905 122.696 18.9827 122.696 19.6694C122.696 20.3498 122.835 20.942 123.115 21.446C123.394 21.9437 123.775 22.3312 124.258 22.6084C124.74 22.8793 125.293 23.0147 125.915 23.0147ZM138.131 24.5834C137.147 24.5834 136.274 24.3692 135.512 23.9408C134.75 23.5124 134.153 22.9297 133.721 22.1926C133.289 21.4492 133.073 20.6081 133.073 19.6694C133.073 18.9575 133.2 18.3023 133.454 17.7038C133.715 17.1053 134.079 16.5856 134.549 16.1446C135.019 15.7036 135.569 15.3634 136.198 15.124C136.833 14.8783 137.525 14.7554 138.274 14.7554C138.884 14.7554 139.446 14.8342 139.96 14.9917C140.474 15.1492 140.951 15.3917 141.389 15.7193L140.493 17.0612C140.208 16.8155 139.875 16.6328 139.494 16.5131C139.113 16.3871 138.709 16.3241 138.283 16.3241C137.585 16.3241 136.979 16.4564 136.464 16.721C135.956 16.9793 135.563 17.3573 135.283 17.855C135.004 18.3527 134.864 18.9512 134.864 19.6505C134.864 20.7026 135.169 21.5279 135.779 22.1264C136.395 22.7186 137.226 23.0147 138.274 23.0147C138.757 23.0147 139.208 22.9297 139.627 22.7596C140.046 22.5832 140.389 22.3564 140.656 22.0792L141.56 23.4022C141.071 23.7676 140.535 24.0574 139.951 24.2716C139.367 24.4795 138.76 24.5834 138.131 24.5834ZM143.595 24.2999V15.0389H145.348V24.2999H143.595ZM144.471 13.2907C144.141 13.2907 143.855 13.1804 143.614 12.9599C143.373 12.7394 143.252 12.4591 143.252 12.1189C143.252 11.7787 143.373 11.5015 143.614 11.2873C143.855 11.0668 144.141 10.9565 144.471 10.9565C144.808 10.9565 145.094 11.0668 145.329 11.2873C145.57 11.5015 145.691 11.7787 145.691 12.1189C145.691 12.4591 145.57 12.7394 145.329 12.9599C145.094 13.1804 144.808 13.2907 144.471 13.2907ZM151.958 24.5834C151.126 24.5834 150.437 24.4165 149.891 24.0826C149.351 23.7487 148.948 23.314 148.681 22.7785C148.414 22.243 148.281 21.6697 148.281 21.0586V15.0389H150.034V20.69C150.034 21.3704 150.24 21.9217 150.653 22.3438C151.072 22.7596 151.647 22.9675 152.377 22.9675C152.847 22.9675 153.272 22.8604 153.653 22.6462C154.034 22.432 154.337 22.1327 154.559 21.7484C154.787 21.3578 154.902 20.9074 154.902 20.3971V15.0389H156.655V24.2999H155.044V23.1659C154.657 23.6321 154.203 23.9849 153.682 24.2243C153.168 24.4637 152.593 24.5834 151.958 24.5834ZM159.688 24.2999V15.0389H161.441V16.3525C161.701 15.9745 161.997 15.6689 162.327 15.4358C162.664 15.2027 163.016 15.0326 163.384 14.9255C163.759 14.8121 164.137 14.7554 164.518 14.7554C165.306 14.7554 165.953 14.9255 166.462 15.2657C166.976 15.6059 167.341 16.0343 167.557 16.5509C168.052 15.8453 168.608 15.3697 169.224 15.124C169.84 14.8783 170.446 14.7554 171.043 14.7554C171.894 14.7554 172.577 14.9255 173.091 15.2657C173.606 15.5996 173.977 16.028 174.206 16.5509C174.44 17.0738 174.558 17.6093 174.558 18.1574V24.2999H172.806V18.6677C172.806 17.981 172.615 17.4266 172.234 17.0045C171.853 16.5824 171.294 16.3714 170.558 16.3714C170.075 16.3714 169.639 16.4785 169.252 16.6927C168.865 16.9006 168.557 17.1935 168.329 17.5715C168.106 17.9495 167.995 18.3842 167.995 18.8756V24.2999H166.242V18.6677C166.242 17.981 166.051 17.4266 165.67 17.0045C165.296 16.5824 164.737 16.3714 163.994 16.3714C163.518 16.3714 163.086 16.4785 162.698 16.6927C162.311 16.9006 162.003 17.1935 161.775 17.5715C161.553 17.9495 161.441 18.3842 161.441 18.8756V24.2999H159.688Z" fill="black"/>
</svg>
