<svg width="163" height="25" viewBox="0 0 163 25" fill="none" xmlns="http://www.w3.org/2000/svg">
<rect width="162.338" height="24.6689" rx="12.3345" fill="url(#paint0_linear_6474_61)"/>
<path fill-rule="evenodd" clip-rule="evenodd" d="M24.909 9.48149C25.0956 9.48169 25.2802 9.52451 25.4511 9.60721C25.622 9.68991 25.7756 9.81072 25.9021 9.96204C26.0286 10.1134 26.1254 10.2919 26.1863 10.4865C26.2473 10.681 26.271 10.8874 26.2561 11.0926V11.1014L25.799 16.2222C25.7927 16.6789 25.6239 17.1146 25.3291 17.4353C25.0342 17.756 24.6369 17.9361 24.2228 17.9366H14.7677C14.3536 17.9361 13.9562 17.756 13.6614 17.4353C13.3665 17.1146 13.1978 16.6789 13.1915 16.2222L12.7366 11.1014V11.0926C12.7217 10.8874 12.7455 10.681 12.8065 10.4864C12.8674 10.2917 12.9642 10.1131 13.0908 9.9618C13.2174 9.81046 13.371 9.68968 13.542 9.60703C13.713 9.52437 13.8976 9.4816 14.0843 9.48149H24.909ZM18.5593 12.4907L16.464 12.81L17.9802 14.3598L17.6223 16.5481L19.4964 15.5149L21.3704 16.5481L21.0125 14.3598L22.5287 12.81L20.4334 12.4907L19.4964 10.4997L18.5593 12.4907Z" fill="white"/>
<path d="M17.3503 6C17.6624 5.99933 17.9676 6.10117 18.2271 6.29252L19.0105 6.87036C19.1216 6.95189 19.2522 6.99521 19.3856 6.99474H23.7789C24.6492 6.99474 25.3571 7.52691 25.3571 8.48681H13.6334V7.74078C13.6338 7.27925 13.8003 6.83675 14.0961 6.5104C14.392 6.18406 14.7931 6.0005 15.2116 6H17.3503Z" fill="white"/>
<path d="M45.0805 18.7006L37.6135 11.101V18.3027H35.5975V5.96826L43.0513 13.5546V6.36615H45.0805V18.7006Z" fill="white"/>
<path d="M47.8325 18.3027V6.36615H54.0661V8.24948H49.9281V10.2654H53.1377V12.0957H49.9281V16.3531H54.0661V18.3027H47.8325Z" fill="white"/>
<path d="M60.114 18.5547C59.3005 18.5547 58.5755 18.3823 57.9388 18.0375C57.3022 17.6926 56.7982 17.2108 56.4269 16.5918C56.0644 15.964 55.8831 15.2169 55.8831 14.3504V6.36615H58.1113V14.2443C58.1113 14.9251 58.3014 15.4689 58.6816 15.8756C59.0618 16.2824 59.5525 16.4857 60.1537 16.4857C60.7373 16.4857 61.2236 16.2912 61.6127 15.9022C62.0017 15.5043 62.1962 14.9782 62.1962 14.3239V6.36615H64.3448V14.3106C64.3448 15.1771 64.1636 15.9287 63.801 16.5653C63.4385 17.2019 62.9389 17.6926 62.3023 18.0375C61.6746 18.3823 60.9451 18.5547 60.114 18.5547Z" fill="white"/>
<path d="M66.8403 18.3027V6.36615H70.3152C71.1552 6.36615 71.8714 6.53415 72.4638 6.87014C73.065 7.19729 73.5248 7.63938 73.8431 8.19642C74.1614 8.74462 74.3206 9.34587 74.3206 10.0002C74.3206 10.628 74.1703 11.1983 73.8696 11.7111C73.5778 12.2151 73.1667 12.6218 72.6362 12.9313L76.005 18.3027H73.6044L70.66 13.5281H68.9358V18.3027H66.8403ZM68.9358 11.7111H70.2754C70.7263 11.7111 71.0933 11.6271 71.3762 11.4591C71.668 11.2911 71.8846 11.0745 72.0261 10.8092C72.1676 10.544 72.2383 10.2743 72.2383 10.0002C72.2383 9.51387 72.057 9.11156 71.6945 8.79325C71.332 8.47495 70.859 8.31579 70.2754 8.31579H68.9358V11.7111Z" fill="white"/>
<path d="M82.5966 18.5415C81.7301 18.5415 80.9166 18.3823 80.1562 18.064C79.3958 17.7369 78.7238 17.2903 78.1403 16.7245C77.5656 16.1586 77.1146 15.4998 76.7875 14.7483C76.4692 13.9967 76.31 13.1921 76.31 12.3344C76.31 11.4768 76.4692 10.6722 76.7875 9.9206C77.1146 9.16904 77.5656 8.51031 78.1403 7.94443C78.7238 7.37855 79.3958 6.93645 80.1562 6.61814C80.9166 6.29099 81.7301 6.12742 82.5966 6.12742C83.472 6.12742 84.2898 6.29099 85.0502 6.61814C85.8106 6.93645 86.4782 7.37855 87.0529 7.94443C87.6277 8.51031 88.0742 9.16904 88.3925 9.9206C88.7196 10.6722 88.8832 11.4768 88.8832 12.3344C88.8832 13.1921 88.7196 13.9967 88.3925 14.7483C88.0742 15.4998 87.6277 16.1586 87.0529 16.7245C86.4782 17.2903 85.8106 17.7369 85.0502 18.064C84.2898 18.3823 83.472 18.5415 82.5966 18.5415ZM82.5966 16.4592C83.3482 16.4592 84.029 16.2735 84.6391 15.9022C85.2492 15.5308 85.7311 15.0312 86.0847 14.4035C86.4473 13.7757 86.6285 13.086 86.6285 12.3344C86.6285 11.5652 86.4473 10.8711 86.0847 10.2522C85.7311 9.63324 85.2492 9.13809 84.6391 8.76673C84.029 8.39537 83.3482 8.20969 82.5966 8.20969C81.8362 8.20969 81.1509 8.39537 80.5409 8.76673C79.9308 9.13809 79.4489 9.63766 79.0952 10.2654C78.7415 10.8844 78.5647 11.574 78.5647 12.3344C78.5647 13.0948 78.7415 13.7889 79.0952 14.4167C79.4489 15.0356 79.9308 15.5308 80.5409 15.9022C81.1509 16.2735 81.8362 16.4592 82.5966 16.4592Z" fill="white"/>
<path d="M91.0094 18.3027V6.36615H97.243V8.19642H93.1049V10.2654H96.8451V12.0957H93.1049V18.3027H91.0094Z" fill="white"/>
<path d="M104.623 18.5415C103.757 18.5415 102.943 18.3823 102.183 18.064C101.423 17.7369 100.751 17.2903 100.167 16.7245C99.5923 16.1586 99.1413 15.4998 98.8142 14.7483C98.4959 13.9967 98.3367 13.1921 98.3367 12.3344C98.3367 11.4768 98.4959 10.6722 98.8142 9.9206C99.1413 9.16904 99.5923 8.51031 100.167 7.94443C100.751 7.37855 101.423 6.93645 102.183 6.61814C102.943 6.29099 103.757 6.12742 104.623 6.12742C105.499 6.12742 106.317 6.29099 107.077 6.61814C107.837 6.93645 108.505 7.37855 109.08 7.94443C109.654 8.51031 110.101 9.16904 110.419 9.9206C110.746 10.6722 110.91 11.4768 110.91 12.3344C110.91 13.1921 110.746 13.9967 110.419 14.7483C110.101 15.4998 109.654 16.1586 109.08 16.7245C108.505 17.2903 107.837 17.7369 107.077 18.064C106.317 18.3823 105.499 18.5415 104.623 18.5415ZM104.623 16.4592C105.375 16.4592 106.056 16.2735 106.666 15.9022C107.276 15.5308 107.758 15.0312 108.111 14.4035C108.474 13.7757 108.655 13.086 108.655 12.3344C108.655 11.5652 108.474 10.8711 108.111 10.2522C107.758 9.63324 107.276 9.13809 106.666 8.76673C106.056 8.39537 105.375 8.20969 104.623 8.20969C103.863 8.20969 103.178 8.39537 102.568 8.76673C101.957 9.13809 101.476 9.63766 101.122 10.2654C100.768 10.8844 100.591 11.574 100.591 12.3344C100.591 13.0948 100.768 13.7889 101.122 14.4167C101.476 15.0356 101.957 15.5308 102.568 15.9022C103.178 16.2735 103.863 16.4592 104.623 16.4592Z" fill="white"/>
<path d="M113.036 18.3027V6.36615H115.251V16.3531H118.978V18.3027H113.036Z" fill="white"/>
<path d="M121 18.3027V6.36615H125.019C126 6.36615 126.884 6.52972 127.671 6.85687C128.458 7.17518 129.13 7.61286 129.687 8.1699C130.253 8.7181 130.682 9.35472 130.974 10.0798C131.274 10.7959 131.425 11.5475 131.425 12.3344C131.425 13.1214 131.274 13.8774 130.974 14.6024C130.682 15.3186 130.253 15.9552 129.687 16.5122C129.13 17.0604 128.458 17.4981 127.671 17.8253C126.884 18.1436 126 18.3027 125.019 18.3027H121ZM123.096 16.3531H124.82C125.554 16.3531 126.19 16.2426 126.73 16.0215C127.269 15.8005 127.72 15.5043 128.082 15.1329C128.445 14.7527 128.715 14.3239 128.891 13.8464C129.068 13.3601 129.157 12.8561 129.157 12.3344C129.157 11.8128 129.068 11.3132 128.891 10.8357C128.715 10.3494 128.445 9.91618 128.082 9.53597C127.72 9.15577 127.269 8.85957 126.73 8.64736C126.19 8.42631 125.554 8.31579 124.82 8.31579H123.096V16.3531Z" fill="white"/>
<path d="M133.533 18.3027V6.36615H139.767V8.24948H135.629V10.2654H138.839V12.0957H135.629V16.3531H139.767V18.3027H133.533Z" fill="white"/>
<path d="M141.929 18.3027V6.36615H145.404C146.244 6.36615 146.96 6.53415 147.552 6.87014C148.154 7.19729 148.613 7.63938 148.932 8.19642C149.25 8.74462 149.409 9.34587 149.409 10.0002C149.409 10.628 149.259 11.1983 148.958 11.7111C148.666 12.2151 148.255 12.6218 147.725 12.9313L151.094 18.3027H148.693L145.749 13.5281H144.024V18.3027H141.929ZM144.024 11.7111H145.364C145.815 11.7111 146.182 11.6271 146.465 11.4591C146.757 11.2911 146.973 11.0745 147.115 10.8092C147.256 10.544 147.327 10.2743 147.327 10.0002C147.327 9.51387 147.146 9.11156 146.783 8.79325C146.421 8.47495 145.948 8.31579 145.364 8.31579H144.024V11.7111Z" fill="white"/>
<defs>
<linearGradient id="paint0_linear_6474_61" x1="162.338" y1="12.3345" x2="0" y2="12.3345" gradientUnits="userSpaceOnUse">
<stop stop-color="#9776F5"/>
<stop offset="0.255" stop-color="#6E6AF0"/>
<stop offset="0.52" stop-color="#5E4ABB"/>
<stop offset="0.725" stop-color="#B550F2"/>
<stop offset="1" stop-color="#BB42D8"/>
</linearGradient>
</defs>
</svg>
