<svg width="37" height="36" viewBox="0 0 37 36" fill="none" xmlns="http://www.w3.org/2000/svg">
<path d="M1.73409 1.36414C3.03988 0.0583532 5.15697 0.0583524 6.46275 1.36414L35.2646 30.166C36.5704 31.4718 36.5704 33.5889 35.2646 34.8946C33.9588 36.2004 31.8417 36.2004 30.5359 34.8946L1.73409 6.0928C0.428308 4.78701 0.42831 2.66992 1.73409 1.36414Z" fill="#FA3600"/>
<path d="M34.5095 1.36379C35.8149 2.66914 35.8149 4.78555 34.5095 6.0909L5.70614 34.8943C4.40078 36.1996 2.28438 36.1996 0.979019 34.8943C-0.326339 33.5889 -0.32634 31.4725 0.979017 30.1672L29.7824 1.36378C31.0878 0.0584249 33.2042 0.0584276 34.5095 1.36379Z" fill="#FA3600"/>
</svg>
