<svg width="18" height="15" viewBox="0 0 18 15" fill="none" xmlns="http://www.w3.org/2000/svg">
<path d="M1.77991 4.375C1.53419 4.37532 1.29107 4.4294 1.06604 4.5332C0.840885 4.6371 0.638016 4.78842 0.471313 4.97852C0.304651 5.16859 0.177582 5.39331 0.09729 5.6377C0.0170231 5.88215 -0.014101 6.14162 0.00549316 6.39941V6.41016L0.608032 12.8457C0.616314 13.4196 0.838602 13.9671 1.22717 14.3701C1.61572 14.773 2.13959 14.9993 2.68518 15H15.1442C15.6898 14.9993 16.2137 14.773 16.6022 14.3701C16.9907 13.9671 17.213 13.4196 17.2213 12.8457L17.8209 6.41016V6.39941C17.8405 6.14158 17.8094 5.88217 17.7291 5.6377C17.6488 5.39317 17.5209 5.16867 17.3541 4.97852C17.1874 4.78844 16.9846 4.63705 16.7594 4.5332C16.5343 4.42945 16.2913 4.37523 16.0455 4.375H1.77991ZM10.1481 8.15625L12.9088 8.55762L10.9108 10.5049L11.3824 13.2549L8.91272 11.957L6.44299 13.2549L6.91467 10.5049L4.91663 8.55762L7.67834 8.15625L8.91272 5.6543L10.1481 8.15625ZM11.7408 0C11.3297 -0.000774368 10.9273 0.126861 10.5856 0.367188L9.55334 1.09375C9.40703 1.19614 9.23494 1.25053 9.0592 1.25H3.26917C2.12256 1.25018 1.19008 1.91893 1.19006 3.125H16.6393V2.1875C16.6387 1.60772 16.4196 1.05166 16.0299 0.641602C15.6401 0.231547 15.1105 0.000673276 14.5592 0H11.7408Z" fill="url(#paint0_linear_5322_765)"/>
<defs>
<linearGradient id="paint0_linear_5322_765" x1="-2.47955e-05" y1="7.5" x2="17.8268" y2="7.5" gradientUnits="userSpaceOnUse">
<stop stop-color="#9776F5"/>
<stop offset="0.255" stop-color="#6E6AF0"/>
<stop offset="0.52" stop-color="#5E4ABB"/>
<stop offset="0.725" stop-color="#B550F2"/>
<stop offset="1" stop-color="#BB42D8"/>
</linearGradient>
</defs>
</svg>
