<svg width="100" height="75" viewBox="0 0 100 75" fill="none" xmlns="http://www.w3.org/2000/svg">
<path d="M0 24.5626V0H3.5914V24.5626H0Z" fill="white"/>
<path d="M10.5879 17.6985C10.8539 18.9771 11.4636 19.9641 12.4169 20.6595C13.3701 21.3324 14.534 21.6689 15.9085 21.6689C17.815 21.6689 19.245 20.9735 20.1982 19.5828L23.1578 21.3324C21.5173 23.7775 19.0898 25 15.8752 25C13.1706 25 10.987 24.17 9.32428 22.5101C7.66159 20.8277 6.83025 18.7079 6.83025 16.1507C6.83025 13.6384 7.65051 11.541 9.29102 9.85868C10.9315 8.15388 13.0376 7.30148 15.6092 7.30148C18.0478 7.30148 20.043 8.1651 21.5949 9.89233C23.1689 11.6196 23.9559 13.7169 23.9559 16.1844C23.9559 16.5657 23.9115 17.0704 23.8229 17.6985H10.5879ZM10.5547 14.7375H20.3312C20.0874 13.3692 19.5221 12.3374 18.6353 11.642C17.7707 10.9466 16.7509 10.5989 15.576 10.5989C14.2458 10.5989 13.1374 10.969 12.2506 11.7093C11.3638 12.4495 10.7985 13.459 10.5547 14.7375Z" fill="white"/>
<path d="M35.8742 11.2382H31.7508V19.3136C31.7508 20.009 31.9059 20.5137 32.2163 20.8277C32.5267 21.1193 32.9811 21.2876 33.5797 21.3324C34.2004 21.3549 34.9653 21.3437 35.8742 21.2988V24.5626C33.1252 24.8991 31.1522 24.6635 29.9551 23.856C28.7579 23.026 28.1594 21.5119 28.1594 19.3136V11.2382H25.1V7.7389H28.1594V4.10498L31.7508 3.02826V7.7389H35.8742V11.2382Z" fill="white"/>
<path d="M47.6299 11.2382H43.5064V19.3136C43.5064 20.009 43.6616 20.5137 43.972 20.8277C44.2824 21.1193 44.7368 21.2876 45.3354 21.3324C45.9561 21.3549 46.721 21.3437 47.6299 21.2988V24.5626C44.8809 24.8991 42.9079 24.6635 41.7107 23.856C40.5136 23.026 39.915 21.5119 39.915 19.3136V11.2382H36.8557V7.7389H39.915V4.10498L43.5064 3.02826V7.7389H47.6299V11.2382Z" fill="white"/>
<path d="M53.0318 17.6985C53.2978 18.9771 53.9075 19.9641 54.8608 20.6595C55.814 21.3324 56.9779 21.6689 58.3524 21.6689C60.2589 21.6689 61.6888 20.9735 62.6421 19.5828L65.6017 21.3324C63.9612 23.7775 61.5336 25 58.3191 25C55.6145 25 53.4308 24.17 51.7682 22.5101C50.1055 20.8277 49.2741 18.7079 49.2741 16.1507C49.2741 13.6384 50.0944 11.541 51.7349 9.85868C53.3754 8.15388 55.4815 7.30148 58.0531 7.30148C60.4917 7.30148 62.4869 8.1651 64.0388 9.89233C65.6128 11.6196 66.3998 13.7169 66.3998 16.1844C66.3998 16.5657 66.3554 17.0704 66.2668 17.6985H53.0318ZM52.9985 14.7375H62.7751C62.5313 13.3692 61.966 12.3374 61.0792 11.642C60.2146 10.9466 59.1948 10.5989 58.0198 10.5989C56.6897 10.5989 55.5812 10.969 54.6945 11.7093C53.8077 12.4495 53.2424 13.459 52.9985 14.7375Z" fill="white"/>
<path d="M73.1513 10.5653C74.0602 8.47914 75.7673 7.43607 78.2724 7.43607V11.3728C76.8979 11.2831 75.7008 11.6196 74.681 12.3822C73.6612 13.1225 73.1513 14.3562 73.1513 16.0834V24.5626H69.5599V7.7389H73.1513V10.5653Z" fill="white"/>
<path d="M83.567 12.3822C83.567 12.943 83.8663 13.3917 84.4648 13.7281C85.0856 14.0422 85.8282 14.3226 86.6928 14.5693C87.5796 14.7936 88.4663 15.0628 89.3531 15.3769C90.2399 15.6909 90.9825 16.2293 91.5811 16.9919C92.2018 17.7322 92.5122 18.6743 92.5122 19.8183C92.5122 21.4334 91.8915 22.7008 90.65 23.6205C89.4307 24.5402 87.8899 25 86.0277 25C84.3872 25 82.9795 24.6523 81.8045 23.9569C80.6296 23.2616 79.7761 22.297 79.244 21.0633L82.3366 19.2463C82.913 20.8614 84.1434 21.6689 86.0277 21.6689C87.9121 21.6689 88.8543 21.0408 88.8543 19.7847C88.8543 19.2463 88.5439 18.8089 87.9232 18.4724C87.3246 18.1359 86.582 17.8555 85.6952 17.6312C84.8306 17.3845 83.9549 17.1041 83.0682 16.79C82.1814 16.476 81.4277 15.9601 80.8069 15.2423C80.2084 14.502 79.9091 13.5711 79.9091 12.4495C79.9091 10.9017 80.4855 9.6568 81.6383 8.71467C82.8132 7.77254 84.2653 7.30148 85.9945 7.30148C87.369 7.30148 88.5883 7.61552 89.6524 8.24361C90.7387 8.84926 91.57 9.70166 92.1464 10.8008L89.1203 12.5168C88.5439 11.2382 87.502 10.5989 85.9945 10.5989C85.3072 10.5989 84.7309 10.7559 84.2653 11.07C83.7998 11.3616 83.567 11.799 83.567 12.3822Z" fill="white"/>
<path d="M99.2684 24.2261C98.7807 24.7196 98.1932 24.9664 97.506 24.9664C96.8187 24.9664 96.2312 24.7196 95.7435 24.2261C95.2558 23.7326 95.0119 23.1382 95.0119 22.4428C95.0119 21.7474 95.2447 21.153 95.7103 20.6595C96.198 20.166 96.7966 19.9192 97.506 19.9192C98.1932 19.9192 98.7807 20.166 99.2684 20.6595C99.7561 21.153 100 21.7474 100 22.4428C100 23.1382 99.7561 23.7326 99.2684 24.2261Z" fill="#FA3600"/>
<path d="M3.30172 56.8712C3.30172 56.5493 3.20351 56.3112 3.0071 56.1569C2.81069 56.0027 2.54994 55.9256 2.22485 55.9256C1.96748 55.9256 1.72028 55.9759 1.48323 56.0765C1.25296 56.1771 1.05655 56.3045 0.894003 56.4588L0.264137 55.7646C0.514729 55.5298 0.819503 55.3454 1.17846 55.2113C1.54419 55.0704 1.93023 55 2.3366 55C2.98001 55 3.48119 55.1509 3.84015 55.4527C4.1991 55.7545 4.39551 56.2274 4.42938 56.8712C4.43615 56.9651 4.43954 57.059 4.43954 57.1529C4.44631 57.2468 4.4497 57.3441 4.4497 57.4447V58.9839C4.4497 59.1583 4.45308 59.336 4.45986 59.5171C4.46663 59.6915 4.47679 59.8558 4.49033 60.0101H3.37283C3.36606 59.9095 3.35928 59.8055 3.35251 59.6982C3.34574 59.5909 3.34235 59.4802 3.34235 59.3662H3.32203C3.14594 59.6211 2.92583 59.8122 2.66169 59.9396C2.39755 60.0671 2.09278 60.1308 1.74737 60.1308C1.55773 60.1308 1.35794 60.104 1.14798 60.0503C0.944799 59.9966 0.758548 59.9128 0.589229 59.7988C0.41991 59.6781 0.277683 59.5238 0.162546 59.336C0.054182 59.1415 0 58.9034 0 58.6217C0 58.2596 0.0948185 57.9712 0.284455 57.7565C0.480865 57.5419 0.734843 57.3776 1.04639 57.2636C1.36471 57.1496 1.72028 57.0758 2.1131 57.0423C2.50592 57.0087 2.90212 56.992 3.30172 56.992V56.8712ZM3.11885 57.7465C2.88858 57.7465 2.65492 57.7565 2.41787 57.7767C2.1876 57.7968 1.97764 57.837 1.78801 57.8974C1.60514 57.951 1.45275 58.0349 1.33085 58.1489C1.21571 58.2562 1.15814 58.4004 1.15814 58.5815C1.15814 58.7156 1.18523 58.8263 1.23941 58.9135C1.2936 59.0007 1.36132 59.0711 1.4426 59.1247C1.53064 59.1784 1.62885 59.2186 1.73721 59.2455C1.84557 59.2656 1.95394 59.2757 2.0623 59.2757C2.46867 59.2757 2.78021 59.1549 2.99694 58.9135C3.21367 58.6653 3.32203 58.3602 3.32203 57.998V57.7465H3.11885Z" fill="#8D8B86"/>
<path d="M7.12948 60.0101H5.91039V55.1408H9.19179V56.0865H7.12948V60.0101Z" fill="#8D8B86"/>
<path d="M13.6728 57.1026C13.6661 56.7539 13.5543 56.4621 13.3376 56.2274C13.1276 55.9926 12.8195 55.8753 12.4131 55.8753C12.2167 55.8753 12.0372 55.9088 11.8747 55.9759C11.7121 56.0429 11.5699 56.1335 11.448 56.2475C11.3261 56.3548 11.2279 56.4856 11.1534 56.6398C11.0856 56.7874 11.045 56.9416 11.0315 57.1026H13.6728ZM14.831 57.5453C14.831 57.5989 14.831 57.6559 14.831 57.7163C14.831 57.7767 14.8276 57.837 14.8208 57.8974H11.0213C11.0281 58.0785 11.0721 58.2495 11.1534 58.4105C11.2346 58.5714 11.3396 58.7089 11.4683 58.8229C11.6038 58.937 11.7561 59.0275 11.9255 59.0946C12.0948 59.1616 12.2776 59.1952 12.4741 59.1952C12.7788 59.1952 13.043 59.1315 13.2665 59.004C13.49 58.8766 13.6627 58.7223 13.7846 58.5412L14.6481 59.1147C14.3907 59.4634 14.0758 59.725 13.7033 59.8994C13.3376 60.0671 12.9244 60.1509 12.4639 60.1509C12.0982 60.1509 11.7528 60.0905 11.4277 59.9698C11.1093 59.8491 10.8317 59.6781 10.5946 59.4567C10.3576 59.2354 10.1713 58.9671 10.0359 58.6519C9.90041 58.3367 9.83268 57.9812 9.83268 57.5855C9.83268 57.2032 9.89702 56.8545 10.0257 56.5392C10.1612 56.2173 10.344 55.9423 10.5743 55.7143C10.8113 55.4863 11.0856 55.3119 11.3972 55.1911C11.7087 55.0637 12.0474 55 12.4131 55C12.7856 55 13.1209 55.0637 13.4189 55.1911C13.7169 55.3119 13.9708 55.4829 14.1808 55.7042C14.3907 55.9256 14.5499 56.1938 14.6583 56.5091C14.7734 56.8176 14.831 57.163 14.831 57.5453Z" fill="#8D8B86"/>
<path d="M17.2688 60.0101H16.0497V55.1408H17.2688V57.0121H19.4327V55.1408H20.6518V60.0101H19.4327V57.9577H17.2688V60.0101Z" fill="#8D8B86"/>
<path d="M21.5517 55.1408H25.8998V56.0966H24.3048V60.0101H23.0857V56.0966H21.5517V55.1408Z" fill="#8D8B86"/>
<path d="M30.2785 56.5091C30.1769 56.3548 30.0313 56.2341 29.8416 56.1469C29.652 56.053 29.4522 56.006 29.2422 56.006C29.0187 56.006 28.8156 56.0463 28.6327 56.1268C28.4566 56.2072 28.3042 56.3179 28.1755 56.4588C28.0536 56.5996 27.9554 56.7673 27.8809 56.9618C27.8132 57.1496 27.7793 57.3541 27.7793 57.5755C27.7793 57.7901 27.8132 57.9946 27.8809 58.1891C27.9487 58.3769 28.0469 58.5412 28.1755 58.6821C28.3042 58.8229 28.46 58.9336 28.6429 59.0141C28.8257 59.0946 29.0289 59.1348 29.2524 59.1348C29.4827 59.1348 29.6892 59.0912 29.8721 59.004C30.0617 58.9168 30.2141 58.7995 30.3293 58.6519L31.0709 59.4266C30.8609 59.6479 30.5968 59.8256 30.2785 59.9598C29.9669 60.0872 29.6147 60.1509 29.2219 60.1509C28.8291 60.1509 28.4668 60.0905 28.1349 59.9698C27.8098 59.8424 27.5254 59.668 27.2815 59.4467C27.0445 59.2186 26.8582 58.947 26.7228 58.6318C26.5941 58.3166 26.5298 57.9645 26.5298 57.5755C26.5298 57.1932 26.5975 56.8444 26.7329 56.5292C26.8684 56.214 27.0546 55.9423 27.2917 55.7143C27.5287 55.4863 27.8132 55.3119 28.1451 55.1911C28.4769 55.0637 28.8359 55 29.2219 55C29.5673 55 29.906 55.0637 30.2378 55.1911C30.5765 55.3186 30.8474 55.4997 31.0506 55.7344L30.2785 56.5091Z" fill="#8D8B86"/>
<path d="M31.3041 55.1408H35.6522V56.0966H34.0572V60.0101H32.8381V56.0966H31.3041V55.1408Z" fill="#8D8B86"/>
<path d="M38.7406 57.173C39.0183 57.173 39.2452 57.1362 39.4213 57.0624C39.5974 56.9886 39.6854 56.831 39.6854 56.5895C39.6854 56.4487 39.6516 56.3414 39.5838 56.2676C39.5161 56.1871 39.4247 56.1268 39.3095 56.0865C39.1944 56.0463 39.0589 56.0228 38.9032 56.0161C38.7474 56.0094 38.5815 56.006 38.4054 56.006H37.7755V57.173H38.7406ZM37.7755 59.1449H38.5171C38.7068 59.1449 38.8862 59.1415 39.0556 59.1348C39.2249 59.1281 39.3705 59.108 39.4924 59.0744C39.6211 59.0342 39.7227 58.9738 39.7972 58.8934C39.8717 58.8129 39.9089 58.6955 39.9089 58.5412C39.9089 58.3937 39.8717 58.2797 39.7972 58.1992C39.7227 58.112 39.6211 58.0483 39.4924 58.008C39.3705 57.9678 39.2249 57.9443 39.0556 57.9376C38.8862 57.9242 38.7068 57.9175 38.5171 57.9175H37.7755V59.1449ZM36.5564 60.0101V55.1408H39.0149C39.638 55.1408 40.1087 55.2582 40.427 55.493C40.7521 55.7277 40.9147 56.0463 40.9147 56.4487C40.9147 56.6298 40.8842 56.7807 40.8233 56.9014C40.7691 57.0221 40.6912 57.1227 40.5896 57.2032C40.488 57.2837 40.3695 57.3508 40.234 57.4044C40.1053 57.4514 39.9665 57.495 39.8175 57.5352C40.0004 57.5486 40.1731 57.5788 40.3356 57.6258C40.4982 57.6727 40.6404 57.7431 40.7623 57.837C40.8842 57.9309 40.979 58.0516 41.0468 58.1992C41.1213 58.34 41.1585 58.5111 41.1585 58.7123C41.1585 59.1013 40.9824 59.4165 40.6302 59.6579C40.278 59.8927 39.7802 60.0101 39.1368 60.0101H36.5564Z" fill="#8D8B86"/>
<path d="M47.3807 57.5654C47.3807 57.9477 47.3096 58.2998 47.1674 58.6217C47.0319 58.937 46.8423 59.2086 46.5985 59.4366C46.3614 59.6647 46.077 59.8424 45.7451 59.9698C45.42 60.0905 45.0678 60.1509 44.6886 60.1509C44.3093 60.1509 43.9571 60.0905 43.632 59.9698C43.3069 59.8424 43.0225 59.6647 42.7786 59.4366C42.5416 59.2086 42.352 58.937 42.2097 58.6217C42.0743 58.2998 42.0066 57.9477 42.0066 57.5654C42.0066 57.1831 42.0743 56.8343 42.2097 56.5191C42.352 56.2039 42.5416 55.9356 42.7786 55.7143C43.0225 55.4863 43.3069 55.3119 43.632 55.1911C43.9571 55.0637 44.3093 55 44.6886 55C45.0678 55 45.42 55.0637 45.7451 55.1911C46.077 55.3119 46.3614 55.4863 46.5985 55.7143C46.8423 55.9356 47.0319 56.2039 47.1674 56.5191C47.3096 56.8343 47.3807 57.1831 47.3807 57.5654ZM46.1718 57.5654C46.1718 57.3575 46.1379 57.1596 46.0702 56.9718C46.0025 56.7773 45.9043 56.6097 45.7756 56.4688C45.6537 56.3213 45.4979 56.2072 45.3083 56.1268C45.1254 56.0396 44.9188 55.996 44.6886 55.996C44.4583 55.996 44.2517 56.0396 44.0689 56.1268C43.886 56.2072 43.7302 56.3213 43.6015 56.4688C43.4796 56.6097 43.3848 56.7773 43.3171 56.9718C43.2493 57.1596 43.2155 57.3575 43.2155 57.5654C43.2155 57.7733 43.2493 57.9745 43.3171 58.169C43.3848 58.3568 43.4796 58.5245 43.6015 58.672C43.7302 58.8129 43.886 58.9269 44.0689 59.0141C44.2517 59.0946 44.4583 59.1348 44.6886 59.1348C44.9188 59.1348 45.1254 59.0946 45.3083 59.0141C45.4979 58.9269 45.6537 58.8129 45.7756 58.672C45.9043 58.5245 46.0025 58.3568 46.0702 58.169C46.1379 57.9745 46.1718 57.7733 46.1718 57.5654Z" fill="#8D8B86"/>
<path d="M1.53403 69.5875C1.74398 69.5875 1.94039 69.6076 2.12326 69.6479L3.53538 67.7163H4.87638L3.16965 70C3.65728 70.2347 4.03995 70.5667 4.31763 70.996C4.59531 71.4252 4.81542 71.9551 4.97797 72.5855H3.63697C3.55569 72.2032 3.45072 71.8846 3.32203 71.6298C3.20012 71.3749 3.05112 71.1704 2.87503 71.0161C2.70571 70.8618 2.5093 70.7478 2.2858 70.674C2.06908 70.6003 1.81848 70.5567 1.53403 70.5433V72.5855H0.314933V67.7163H1.53403V69.5875Z" fill="#8D8B86"/>
<path d="M11.2087 70.1408C11.2087 70.5231 11.1376 70.8753 10.9953 71.1972C10.8599 71.5124 10.6703 71.784 10.4264 72.0121C10.1894 72.2401 9.90493 72.4178 9.57307 72.5453C9.24798 72.666 8.89579 72.7264 8.51652 72.7264C8.13725 72.7264 7.78506 72.666 7.45997 72.5453C7.13488 72.4178 6.85042 72.2401 6.60661 72.0121C6.36956 71.784 6.17992 71.5124 6.03769 71.1972C5.90224 70.8753 5.83451 70.5231 5.83451 70.1408C5.83451 69.7586 5.90224 69.4098 6.03769 69.0946C6.17992 68.7793 6.36956 68.5111 6.60661 68.2897C6.85042 68.0617 7.13488 67.8873 7.45997 67.7666C7.78506 67.6392 8.13725 67.5755 8.51652 67.5755C8.89579 67.5755 9.24798 67.6392 9.57307 67.7666C9.90493 67.8873 10.1894 68.0617 10.4264 68.2897C10.6703 68.5111 10.8599 68.7793 10.9953 69.0946C11.1376 69.4098 11.2087 69.7586 11.2087 70.1408ZM9.99975 70.1408C9.99975 69.9329 9.96589 69.7351 9.89816 69.5473C9.83043 69.3528 9.73223 69.1851 9.60355 69.0443C9.48164 68.8967 9.32586 68.7827 9.13623 68.7022C8.95336 68.615 8.74679 68.5714 8.51652 68.5714C8.28625 68.5714 8.07968 68.615 7.89681 68.7022C7.71395 68.7827 7.55818 68.8967 7.42949 69.0443C7.30759 69.1851 7.21277 69.3528 7.14504 69.5473C7.07731 69.7351 7.04345 69.9329 7.04345 70.1408C7.04345 70.3488 7.07731 70.55 7.14504 70.7445C7.21277 70.9323 7.30759 71.0999 7.42949 71.2475C7.55818 71.3883 7.71395 71.5023 7.89681 71.5895C8.07968 71.67 8.28625 71.7103 8.51652 71.7103C8.74679 71.7103 8.95336 71.67 9.13623 71.5895C9.32586 71.5023 9.48164 71.3883 9.60355 71.2475C9.73223 71.0999 9.83043 70.9323 9.89816 70.7445C9.96589 70.55 9.99975 70.3488 9.99975 70.1408Z" fill="#8D8B86"/>
<path d="M13.6575 72.5855H12.4384V67.7163H13.6575V69.5875H15.8214V67.7163H17.0405V72.5855H15.8214V70.5332H13.6575V72.5855Z" fill="#8D8B86"/>
<path d="M17.9405 67.7163H22.2886V68.672H20.6936V72.5855H19.4745V68.672H17.9405V67.7163Z" fill="#8D8B86"/>
<path d="M26.7587 69.6781C26.7519 69.3293 26.6401 69.0376 26.4234 68.8028C26.2135 68.5681 25.9053 68.4507 25.4989 68.4507C25.3025 68.4507 25.123 68.4842 24.9605 68.5513C24.7979 68.6184 24.6557 68.7089 24.5338 68.8229C24.4119 68.9302 24.3137 69.061 24.2392 69.2153C24.1715 69.3628 24.1308 69.5171 24.1173 69.6781H26.7587ZM27.9168 70.1207C27.9168 70.1744 27.9168 70.2314 27.9168 70.2917C27.9168 70.3521 27.9134 70.4125 27.9066 70.4728H24.1071C24.1139 70.6539 24.1579 70.8249 24.2392 70.9859C24.3205 71.1469 24.4254 71.2844 24.5541 71.3984C24.6896 71.5124 24.842 71.603 25.0113 71.67C25.1806 71.7371 25.3635 71.7706 25.5599 71.7706C25.8647 71.7706 26.1288 71.7069 26.3523 71.5795C26.5758 71.452 26.7485 71.2978 26.8704 71.1167L27.7339 71.6901C27.4766 72.0389 27.1616 72.3005 26.7891 72.4748C26.4234 72.6425 26.0103 72.7264 25.5497 72.7264C25.184 72.7264 24.8386 72.666 24.5135 72.5453C24.1952 72.4245 23.9175 72.2535 23.6804 72.0322C23.4434 71.8109 23.2571 71.5426 23.1217 71.2274C22.9862 70.9121 22.9185 70.5567 22.9185 70.161C22.9185 69.7787 22.9828 69.4299 23.1115 69.1147C23.247 68.7928 23.4298 68.5178 23.6601 68.2897C23.8972 68.0617 24.1715 67.8873 24.483 67.7666C24.7946 67.6392 25.1332 67.5755 25.4989 67.5755C25.8714 67.5755 26.2067 67.6392 26.5047 67.7666C26.8027 67.8873 27.0567 68.0583 27.2666 68.2797C27.4766 68.501 27.6357 68.7693 27.7441 69.0845C27.8592 69.393 27.9168 69.7384 27.9168 70.1207Z" fill="#8D8B86"/>
<path d="M30.3546 72.5855H29.1355V67.7163H30.3546V69.5875H32.5185V67.7163H33.7376V72.5855H32.5185V70.5332H30.3546V72.5855Z" fill="#8D8B86"/>
<path d="M34.6375 67.7163H38.9856V68.672H37.3907V72.5855H36.1716V68.672H34.6375V67.7163Z" fill="#8D8B86"/>
<path d="M41.9827 70.6237H39.5445V69.5976H41.9827V70.6237Z" fill="#8D8B86"/>
<path d="M44.2107 67.7163L46.0698 69.9195L47.8984 67.7163H48.9652V72.5855H47.7461V69.4064L46.2019 71.3984H45.9174L44.3631 69.4366V72.5855H43.144V67.7163H44.2107Z" fill="#8D8B86"/>
<path d="M53.4525 69.4467C53.4525 69.1247 53.3543 68.8867 53.1579 68.7324C52.9614 68.5781 52.7007 68.501 52.3756 68.501C52.1182 68.501 51.871 68.5513 51.634 68.6519C51.4037 68.7525 51.2073 68.8799 51.0448 69.0342L50.4149 68.34C50.6655 68.1053 50.9703 67.9209 51.3292 67.7867C51.6949 67.6459 52.081 67.5755 52.4874 67.5755C53.1308 67.5755 53.632 67.7264 53.9909 68.0282C54.3499 68.33 54.5463 68.8028 54.5801 69.4467C54.5869 69.5406 54.5903 69.6345 54.5903 69.7284C54.5971 69.8223 54.6005 69.9195 54.6005 70.0201V71.5594C54.6005 71.7337 54.6038 71.9115 54.6106 72.0926C54.6174 72.2669 54.6275 72.4313 54.6411 72.5855H53.5236C53.5168 72.4849 53.51 72.381 53.5033 72.2736C53.4965 72.1663 53.4931 72.0557 53.4931 71.9417H53.4728C53.2967 72.1965 53.0766 72.3877 52.8124 72.5151C52.5483 72.6425 52.2435 72.7062 51.8981 72.7062C51.7085 72.7062 51.5087 72.6794 51.2987 72.6258C51.0956 72.5721 50.9093 72.4883 50.74 72.3742C50.5707 72.2535 50.4284 72.0993 50.3133 71.9115C50.2049 71.717 50.1508 71.4789 50.1508 71.1972C50.1508 70.835 50.2456 70.5466 50.4352 70.332C50.6316 70.1174 50.8856 69.9531 51.1971 69.839C51.5155 69.725 51.871 69.6512 52.2639 69.6177C52.6567 69.5842 53.0529 69.5674 53.4525 69.5674V69.4467ZM53.2696 70.3219C53.0393 70.3219 52.8057 70.332 52.5686 70.3521C52.3384 70.3722 52.1284 70.4125 51.9388 70.4728C51.7559 70.5265 51.6035 70.6103 51.4816 70.7243C51.3665 70.8317 51.3089 70.9759 51.3089 71.1569C51.3089 71.2911 51.336 71.4017 51.3902 71.4889C51.4444 71.5761 51.5121 71.6465 51.5934 71.7002C51.6814 71.7539 51.7796 71.7941 51.888 71.8209C51.9963 71.841 52.1047 71.8511 52.2131 71.8511C52.6194 71.8511 52.931 71.7304 53.1477 71.4889C53.3644 71.2408 53.4728 70.9356 53.4728 70.5734V70.3219H53.2696Z" fill="#8D8B86"/>
<path d="M57.3006 75H56.0815V67.7163H57.2498V68.4205H57.2802C57.4563 68.1657 57.6934 67.9645 57.9914 67.8169C58.2894 67.6626 58.6179 67.5855 58.9768 67.5855C59.3493 67.5855 59.6846 67.6526 59.9826 67.7867C60.2806 67.9209 60.5345 68.1053 60.7445 68.34C60.9545 68.5681 61.117 68.8397 61.2321 69.1549C61.3473 69.4634 61.4048 69.7921 61.4048 70.1408C61.4048 70.4896 61.3473 70.8216 61.2321 71.1368C61.1238 71.4453 60.9646 71.717 60.7547 71.9517C60.5447 72.1865 60.2873 72.3742 59.9826 72.5151C59.6846 72.6492 59.3493 72.7163 58.9768 72.7163C58.6517 72.7163 58.3368 72.6492 58.032 72.5151C57.734 72.3742 57.497 72.1764 57.3209 71.9215H57.3006V75ZM60.1959 70.1408C60.1959 69.9329 60.162 69.7351 60.0943 69.5473C60.0334 69.3528 59.9419 69.1851 59.82 69.0443C59.6981 68.8967 59.5457 68.7827 59.3629 68.7022C59.18 68.615 58.9667 68.5714 58.7228 68.5714C58.4993 68.5714 58.2962 68.615 58.1133 68.7022C57.9304 68.7827 57.7713 68.8967 57.6358 69.0443C57.5071 69.1851 57.4055 69.3528 57.331 69.5473C57.2633 69.7351 57.2294 69.9329 57.2294 70.1408C57.2294 70.3555 57.2633 70.56 57.331 70.7545C57.4055 70.9423 57.5071 71.1066 57.6358 71.2475C57.7713 71.3883 57.9304 71.5023 58.1133 71.5895C58.2962 71.67 58.4993 71.7103 58.7228 71.7103C58.9667 71.7103 59.18 71.67 59.3629 71.5895C59.5457 71.5023 59.6981 71.3883 59.82 71.2475C59.9419 71.0999 60.0334 70.9323 60.0943 70.7445C60.162 70.55 60.1959 70.3488 60.1959 70.1408Z" fill="#8D8B86"/>
<path d="M63.8579 69.5875C64.0678 69.5875 64.2642 69.6076 64.4471 69.6479L65.8592 67.7163H67.2002L65.4935 70C65.9811 70.2347 66.3638 70.5667 66.6415 70.996C66.9192 71.4252 67.1393 71.9551 67.3018 72.5855H65.9608C65.8795 72.2032 65.7746 71.8846 65.6459 71.6298C65.524 71.3749 65.375 71.1704 65.1989 71.0161C65.0296 70.8618 64.8332 70.7478 64.6096 70.674C64.3929 70.6003 64.1423 70.5567 63.8579 70.5433V72.5855H62.6388V67.7163H63.8579V69.5875Z" fill="#8D8B86"/>
<path d="M71.9985 69.6781C71.9917 69.3293 71.88 69.0376 71.6633 68.8028C71.4533 68.5681 71.1451 68.4507 70.7388 68.4507C70.5424 68.4507 70.3629 68.4842 70.2003 68.5513C70.0378 68.6184 69.8956 68.7089 69.7737 68.8229C69.6517 68.9302 69.5535 69.061 69.479 69.2153C69.4113 69.3628 69.3707 69.5171 69.3571 69.6781H71.9985ZM73.1566 70.1207C73.1566 70.1744 73.1566 70.2314 73.1566 70.2917C73.1566 70.3521 73.1533 70.4125 73.1465 70.4728H69.347C69.3537 70.6539 69.3978 70.8249 69.479 70.9859C69.5603 71.1469 69.6653 71.2844 69.794 71.3984C69.9294 71.5124 70.0818 71.603 70.2511 71.67C70.4205 71.7371 70.6033 71.7706 70.7997 71.7706C71.1045 71.7706 71.3686 71.7069 71.5921 71.5795C71.8156 71.452 71.9883 71.2978 72.1103 71.1167L72.9738 71.6901C72.7164 72.0389 72.4015 72.3005 72.029 72.4748C71.6633 72.6425 71.2501 72.7264 70.7896 72.7264C70.4238 72.7264 70.0784 72.666 69.7533 72.5453C69.435 72.4245 69.1573 72.2535 68.9203 72.0322C68.6833 71.8109 68.497 71.5426 68.3615 71.2274C68.2261 70.9121 68.1584 70.5567 68.1584 70.161C68.1584 69.7787 68.2227 69.4299 68.3514 69.1147C68.4868 68.7928 68.6697 68.5178 68.9 68.2897C69.137 68.0617 69.4113 67.8873 69.7229 67.7666C70.0344 67.6392 70.373 67.5755 70.7388 67.5755C71.1113 67.5755 71.4465 67.6392 71.7445 67.7666C72.0425 67.8873 72.2965 68.0583 72.5065 68.2797C72.7164 68.501 72.8756 68.7693 72.9839 69.0845C73.0991 69.393 73.1566 69.7384 73.1566 70.1207Z" fill="#8D8B86"/>
<path d="M73.776 67.7163H78.1241V68.672H76.5291V72.5855H75.31V68.672H73.776V67.7163Z" fill="#8D8B86"/>
<path d="M82.7973 69.2555L80.2576 72.5855H79.0283V67.7163H80.2576V70.9658L82.7973 67.7163H84.0266V72.5855H82.7973V69.2555Z" fill="#8D8B86"/>
<path d="M86.7457 72.5855H85.5266V67.7163H86.7457V69.5875H88.9096V67.7163H90.1287V72.5855H88.9096V70.5332H86.7457V72.5855Z" fill="#8D8B86"/>
<path d="M92.8471 72.5855H91.628V67.7163H94.9094V68.662H92.8471V72.5855Z" fill="#8D8B86"/>
<path d="M98.8114 69.4467C98.8114 69.1247 98.7132 68.8867 98.5168 68.7324C98.3204 68.5781 98.0596 68.501 97.7345 68.501C97.4771 68.501 97.2299 68.5513 96.9929 68.6519C96.7626 68.7525 96.5662 68.8799 96.4037 69.0342L95.7738 68.34C96.0244 68.1053 96.3292 67.9209 96.6881 67.7867C97.0538 67.6459 97.4399 67.5755 97.8463 67.5755C98.4897 67.5755 98.9909 67.7264 99.3498 68.0282C99.7088 68.33 99.9052 68.8028 99.939 69.4467C99.9458 69.5406 99.9492 69.6345 99.9492 69.7284C99.956 69.8223 99.9594 69.9195 99.9594 70.0201V71.5594C99.9594 71.7337 99.9627 71.9115 99.9695 72.0926C99.9763 72.2669 99.9865 72.4313 100 72.5855H98.8825C98.8757 72.4849 98.8689 72.381 98.8622 72.2736C98.8554 72.1663 98.852 72.0557 98.852 71.9417H98.8317C98.6556 72.1965 98.4355 72.3877 98.1713 72.5151C97.9072 72.6425 97.6024 72.7062 97.257 72.7062C97.0674 72.7062 96.8676 72.6794 96.6576 72.6258C96.4545 72.5721 96.2682 72.4883 96.0989 72.3742C95.9296 72.2535 95.7873 72.0993 95.6722 71.9115C95.5638 71.717 95.5097 71.4789 95.5097 71.1972C95.5097 70.835 95.6045 70.5466 95.7941 70.332C95.9905 70.1174 96.2445 69.9531 96.556 69.839C96.8744 69.725 97.2299 69.6512 97.6228 69.6177C98.0156 69.5842 98.4118 69.5674 98.8114 69.5674V69.4467ZM98.6285 70.3219C98.3982 70.3219 98.1646 70.332 97.9275 70.3521C97.6973 70.3722 97.4873 70.4125 97.2977 70.4728C97.1148 70.5265 96.9624 70.6103 96.8405 70.7243C96.7254 70.8317 96.6678 70.9759 96.6678 71.1569C96.6678 71.2911 96.6949 71.4017 96.7491 71.4889C96.8033 71.5761 96.871 71.6465 96.9523 71.7002C97.0403 71.7539 97.1385 71.7941 97.2469 71.8209C97.3552 71.841 97.4636 71.8511 97.572 71.8511C97.9783 71.8511 98.2899 71.7304 98.5066 71.4889C98.7233 71.2408 98.8317 70.9356 98.8317 70.5734V70.3219H98.6285Z" fill="#8D8B86"/>
</svg>
