<svg width="315" height="347" viewBox="0 0 315 347" fill="none" xmlns="http://www.w3.org/2000/svg">
<path fill-rule="evenodd" clip-rule="evenodd" d="M139.879 84C176.466 84 197.946 87.6992 213.041 102.363C228.443 118.074 232 139.399 232 175.983V177.017C232 213.612 228.443 235.081 213.041 250.637C197.935 265.301 176.609 269 139.869 269H139.131C102.402 269 80.9215 265.301 65.9591 250.637C50.5562 234.927 47 213.601 47 177.017V175.983C47 139.399 50.5562 117.92 65.9591 102.363C81.0646 87.6991 102.402 84 139.142 84H139.879ZM138.025 106.022C137.32 106.022 136.736 106.595 136.704 107.299C135.746 132.628 132.531 148.039 121.743 158.827C110.966 169.604 95.587 172.818 70.3008 173.775C69.5963 173.798 69.0238 174.381 69.0237 175.096V178.047C69.0237 178.751 69.5963 179.334 70.3008 179.367C95.5871 180.325 110.977 183.551 121.743 194.316C132.509 205.082 135.724 220.438 136.693 245.678C136.715 246.383 137.298 246.955 138.014 246.955H140.975C141.679 246.955 142.263 246.383 142.296 245.678C143.265 220.438 146.479 205.082 157.246 194.316C168.023 183.54 183.401 180.325 208.688 179.367C209.392 179.345 209.965 178.762 209.965 178.047V175.096H209.976C209.976 174.392 209.404 173.809 208.699 173.775C183.412 172.818 168.023 169.593 157.257 158.827C146.468 148.039 143.254 132.639 142.296 107.299C142.274 106.595 141.69 106.022 140.975 106.022H138.025Z" fill="#0B0B0B"/>
<path d="M256 118C256 85.4152 282.415 59 315 59C282.415 59 256 32.5848 256 0C256 32.5848 229.585 59 197 59C229.585 59 256 85.4152 256 118Z" fill="#FA3600"/>
<path d="M31 115C31 97.8792 44.8792 84 62 84C44.8792 84 31 70.1208 31 53C31 70.1208 17.1208 84 0 84C17.1208 84 31 97.8792 31 115Z" fill="#FA3600"/>
<path d="M238 307C238 296.507 246.507 288 257 288C246.507 288 238 279.493 238 269C238 279.493 229.493 288 219 288C229.493 288 238 296.507 238 307Z" fill="#FA3600"/>
<path d="M177.181 340.91H183.345V329.788H196.836V340.91H203V314.099H196.836V324.715H183.345V314.099H177.181V340.91Z" fill="#202022"/>
<path d="M174.184 328.732C174.184 319.005 169.047 313 160.953 313C152.858 313 146.778 319.681 146.778 327.419C146.778 335.538 152.559 341.881 161.637 341.881C165.791 341.881 169.645 340.529 172.855 337.822L170.157 333.89C167.844 335.541 164.977 336.808 161.85 336.808C157.225 336.808 153.928 334.186 152.985 329.913H174.181V328.729L174.184 328.732ZM152.945 325.135C153.759 320.948 157.012 318.116 160.953 318.116C164.894 318.116 167.462 320.781 168.147 325.135H152.945Z" fill="#202022"/>
<path d="M132.603 341.884C140.182 341.884 144.894 338.333 144.894 333.595C144.894 330.678 143.222 328.141 139.112 327.337L138.856 327.294V327.042L139.112 326.999C143.01 326.238 144.635 323.868 144.635 321.079C144.635 316.767 140.567 313.085 133.5 313.085C128.705 313.085 124.036 314.861 120.182 317.696L122.624 321.84C125.322 319.98 129.134 318.162 133.071 318.162C136.667 318.162 138.637 319.684 138.637 321.712C138.637 323.573 136.883 324.968 133.114 325.096L126.605 325.391V329.45L133.114 329.746C137.095 329.956 138.637 331.354 138.637 333.086C138.637 335.118 136.497 336.893 132.171 336.893C127.845 336.893 124.292 335.16 121.252 333.086V338.754C123.093 339.81 127.117 341.884 132.6 341.884H132.603Z" fill="#202022"/>
<path d="M115.862 334.862V314.099H94.3234L92.7385 327.928C92.0539 333.595 90.3395 334.862 87.2559 334.862H87V347H93.1671V340.91H113.293V347H119.461V334.862H115.862ZM109.738 335.836H94.7089V335.583C96.5497 334.907 98.1347 333.765 98.6065 329.325L99.6765 319.133H109.738V335.836Z" fill="#202022"/>
</svg>
