<svg width="64" height="16" viewBox="0 0 64 16" fill="none" xmlns="http://www.w3.org/2000/svg">
<path d="M63.3333 8C63.3333 5.05448 60.9455 2.66667 58 2.66667C55.0545 2.66667 52.6667 5.05448 52.6667 8C52.6667 10.9455 55.0545 13.3333 58 13.3333C60.9455 13.3333 63.3333 10.9455 63.3333 8ZM0.292892 7.2929C-0.0976296 7.68342 -0.0976295 8.31659 0.292893 8.70711L6.65685 15.0711C7.04738 15.4616 7.68054 15.4616 8.07107 15.0711C8.46159 14.6805 8.46159 14.0474 8.07107 13.6569L2.41422 8L8.07107 2.34315C8.46159 1.95263 8.46159 1.31946 8.07107 0.928936C7.68054 0.538412 7.04738 0.538412 6.65685 0.928936L0.292892 7.2929ZM58 8L58 7L1 7L1 8L1 9L58 9L58 8Z" fill="#FA3600"/>
</svg>
