<svg width="100" height="20" viewBox="0 0 100 20" fill="none" xmlns="http://www.w3.org/2000/svg">
<path d="M3.30172 1.87123C3.30172 1.5493 3.20351 1.3112 3.0071 1.15694C2.81069 1.00268 2.54994 0.925553 2.22485 0.925553C1.96748 0.925553 1.72028 0.975855 1.48323 1.07646C1.25296 1.17706 1.05655 1.30449 0.894003 1.45875L0.264137 0.764588C0.514729 0.529846 0.819503 0.345406 1.17846 0.211268C1.54419 0.0704225 1.93023 0 2.3366 0C2.98001 0 3.48119 0.150905 3.84015 0.452716C4.1991 0.754527 4.39551 1.22736 4.42938 1.87123C4.43615 1.96512 4.43954 2.05902 4.43954 2.15292C4.44631 2.24681 4.4497 2.34406 4.4497 2.44467V3.9839C4.4497 4.15828 4.45308 4.33602 4.45986 4.5171C4.46663 4.69148 4.47679 4.8558 4.49033 5.01006H3.37283C3.36606 4.90946 3.35928 4.8055 3.35251 4.69819C3.34574 4.59088 3.34235 4.48021 3.34235 4.3662H3.32203C3.14594 4.62106 2.92583 4.81221 2.66169 4.93964C2.39755 5.06707 2.09278 5.13078 1.74737 5.13078C1.55773 5.13078 1.35794 5.10396 1.14798 5.0503C0.944799 4.99665 0.758548 4.91281 0.589229 4.79879C0.41991 4.67807 0.277683 4.52381 0.162546 4.33602C0.054182 4.14152 0 3.90342 0 3.62173C0 3.25956 0.0948185 2.97116 0.284455 2.75654C0.480865 2.54192 0.734843 2.3776 1.04639 2.26358C1.36471 2.14956 1.72028 2.07579 2.1131 2.04225C2.50592 2.00872 2.90212 1.99195 3.30172 1.99195V1.87123ZM3.11885 2.74648C2.88858 2.74648 2.65492 2.75654 2.41787 2.77666C2.1876 2.79678 1.97764 2.83702 1.78801 2.89738C1.60514 2.95104 1.45275 3.03488 1.33085 3.14889C1.21571 3.2562 1.15814 3.4004 1.15814 3.58149C1.15814 3.71563 1.18523 3.82629 1.23941 3.91348C1.2936 4.00067 1.36132 4.07109 1.4426 4.12475C1.53064 4.1784 1.62885 4.21865 1.73721 4.24547C1.84557 4.26559 1.95394 4.27565 2.0623 4.27565C2.46867 4.27565 2.78021 4.15493 2.99694 3.91348C3.21367 3.66533 3.32203 3.36016 3.32203 2.99799V2.74648H3.11885Z" fill="#8D8B86"/>
<path d="M7.12948 5.01006H5.91039V0.140845H9.19179V1.08652H7.12948V5.01006Z" fill="#8D8B86"/>
<path d="M13.6728 2.10262C13.6661 1.75386 13.5543 1.46211 13.3376 1.22736C13.1276 0.992622 12.8195 0.875252 12.4131 0.875252C12.2167 0.875252 12.0372 0.908786 11.8747 0.975855C11.7121 1.04292 11.5699 1.13347 11.448 1.24749C11.3261 1.3548 11.2279 1.48558 11.1534 1.63984C11.0856 1.78739 11.045 1.94165 11.0315 2.10262H13.6728ZM14.831 2.54527C14.831 2.59893 14.831 2.65594 14.831 2.7163C14.831 2.77666 14.8276 2.83702 14.8208 2.89738H11.0213C11.0281 3.07847 11.0721 3.2495 11.1534 3.41046C11.2346 3.57143 11.3396 3.70892 11.4683 3.82294C11.6038 3.93696 11.7561 4.0275 11.9255 4.09457C12.0948 4.16164 12.2776 4.19517 12.4741 4.19517C12.7788 4.19517 13.043 4.13146 13.2665 4.00402C13.49 3.87659 13.6627 3.72233 13.7846 3.54125L14.6481 4.11469C14.3907 4.46345 14.0758 4.72502 13.7033 4.8994C13.3376 5.06707 12.9244 5.15091 12.4639 5.15091C12.0982 5.15091 11.7528 5.09054 11.4277 4.96982C11.1093 4.84909 10.8317 4.67807 10.5946 4.45674C10.3576 4.23541 10.1713 3.96714 10.0359 3.65191C9.90041 3.33669 9.83268 2.98122 9.83268 2.58551C9.83268 2.20322 9.89702 1.85446 10.0257 1.53924C10.1612 1.2173 10.344 0.942321 10.5743 0.714286C10.8113 0.486251 11.0856 0.311871 11.3972 0.191147C11.7087 0.0637156 12.0474 0 12.4131 0C12.7856 0 13.1209 0.0637156 13.4189 0.191147C13.7169 0.311871 13.9708 0.482897 14.1808 0.704225C14.3907 0.925553 14.5499 1.19383 14.6583 1.50905C14.7734 1.81757 14.831 2.16298 14.831 2.54527Z" fill="#8D8B86"/>
<path d="M17.2688 5.01006H16.0497V0.140845H17.2688V2.01207H19.4327V0.140845H20.6518V5.01006H19.4327V2.95775H17.2688V5.01006Z" fill="#8D8B86"/>
<path d="M21.5517 0.140845H25.8998V1.09658H24.3048V5.01006H23.0857V1.09658H21.5517V0.140845Z" fill="#8D8B86"/>
<path d="M30.2785 1.50905C30.1769 1.3548 30.0313 1.23407 29.8416 1.14688C29.652 1.05298 29.4522 1.00604 29.2422 1.00604C29.0187 1.00604 28.8156 1.04628 28.6327 1.12676C28.4566 1.20724 28.3042 1.31791 28.1755 1.45875C28.0536 1.5996 27.9554 1.76727 27.8809 1.96177C27.8132 2.14956 27.7793 2.35412 27.7793 2.57545C27.7793 2.79007 27.8132 2.99463 27.8809 3.18914C27.9487 3.37693 28.0469 3.54125 28.1755 3.68209C28.3042 3.82294 28.46 3.9336 28.6429 4.01408C28.8257 4.09457 29.0289 4.13481 29.2524 4.13481C29.4827 4.13481 29.6892 4.09121 29.8721 4.00402C30.0617 3.91683 30.2141 3.79946 30.3293 3.65191L31.0709 4.42656C30.8609 4.64789 30.5968 4.82562 30.2785 4.95976C29.9669 5.08719 29.6147 5.15091 29.2219 5.15091C28.8291 5.15091 28.4668 5.09054 28.1349 4.96982C27.8098 4.84239 27.5254 4.66801 27.2815 4.44668C27.0445 4.21865 26.8582 3.94702 26.7228 3.63179C26.5941 3.31657 26.5298 2.96445 26.5298 2.57545C26.5298 2.19316 26.5975 1.8444 26.7329 1.52918C26.8684 1.21395 27.0546 0.942321 27.2917 0.714286C27.5287 0.486251 27.8132 0.311871 28.1451 0.191147C28.4769 0.0637156 28.8359 0 29.2219 0C29.5673 0 29.906 0.0637156 30.2378 0.191147C30.5765 0.318578 30.8474 0.499665 31.0506 0.734407L30.2785 1.50905Z" fill="#8D8B86"/>
<path d="M31.3041 0.140845H35.6522V1.09658H34.0572V5.01006H32.8381V1.09658H31.3041V0.140845Z" fill="#8D8B86"/>
<path d="M38.7406 2.17304C39.0183 2.17304 39.2452 2.13615 39.4213 2.06237C39.5974 1.9886 39.6854 1.83099 39.6854 1.58954C39.6854 1.44869 39.6516 1.34138 39.5838 1.26761C39.5161 1.18712 39.4247 1.12676 39.3095 1.08652C39.1944 1.04628 39.0589 1.0228 38.9032 1.0161C38.7474 1.00939 38.5815 1.00604 38.4054 1.00604H37.7755V2.17304H38.7406ZM37.7755 4.14487H38.5171C38.7068 4.14487 38.8862 4.14152 39.0556 4.13481C39.2249 4.1281 39.3705 4.10798 39.4924 4.07445C39.6211 4.03421 39.7227 3.97384 39.7972 3.89336C39.8717 3.81288 39.9089 3.69551 39.9089 3.54125C39.9089 3.3937 39.8717 3.27968 39.7972 3.1992C39.7227 3.11201 39.6211 3.04829 39.4924 3.00805C39.3705 2.96781 39.2249 2.94433 39.0556 2.93763C38.8862 2.92421 38.7068 2.91751 38.5171 2.91751H37.7755V4.14487ZM36.5564 5.01006V0.140845H39.0149C39.638 0.140845 40.1087 0.258216 40.427 0.492958C40.7521 0.727699 40.9147 1.04628 40.9147 1.44869C40.9147 1.62978 40.8842 1.78068 40.8233 1.90141C40.7691 2.02213 40.6912 2.12274 40.5896 2.20322C40.488 2.2837 40.3695 2.35077 40.234 2.40443C40.1053 2.45138 39.9665 2.49497 39.8175 2.53521C40.0004 2.54863 40.1731 2.57881 40.3356 2.62575C40.4982 2.6727 40.6404 2.74313 40.7623 2.83702C40.8842 2.93092 40.979 3.05164 41.0468 3.1992C41.1213 3.34004 41.1585 3.51107 41.1585 3.71227C41.1585 4.10127 40.9824 4.4165 40.6302 4.65795C40.278 4.89269 39.7802 5.01006 39.1368 5.01006H36.5564Z" fill="#8D8B86"/>
<path d="M47.3807 2.56539C47.3807 2.94769 47.3096 3.2998 47.1674 3.62173C47.0319 3.93696 46.8423 4.20858 46.5985 4.43662C46.3614 4.66465 46.077 4.84239 45.7451 4.96982C45.42 5.09054 45.0678 5.15091 44.6886 5.15091C44.3093 5.15091 43.9571 5.09054 43.632 4.96982C43.3069 4.84239 43.0225 4.66465 42.7786 4.43662C42.5416 4.20858 42.352 3.93696 42.2097 3.62173C42.0743 3.2998 42.0066 2.94769 42.0066 2.56539C42.0066 2.1831 42.0743 1.83434 42.2097 1.51911C42.352 1.20389 42.5416 0.935614 42.7786 0.714286C43.0225 0.486251 43.3069 0.311871 43.632 0.191147C43.9571 0.0637156 44.3093 0 44.6886 0C45.0678 0 45.42 0.0637156 45.7451 0.191147C46.077 0.311871 46.3614 0.486251 46.5985 0.714286C46.8423 0.935614 47.0319 1.20389 47.1674 1.51911C47.3096 1.83434 47.3807 2.1831 47.3807 2.56539ZM46.1718 2.56539C46.1718 2.35748 46.1379 2.15962 46.0702 1.97183C46.0025 1.77733 45.9043 1.60966 45.7756 1.46881C45.6537 1.32126 45.4979 1.20724 45.3083 1.12676C45.1254 1.03957 44.9188 0.995976 44.6886 0.995976C44.4583 0.995976 44.2517 1.03957 44.0689 1.12676C43.886 1.20724 43.7302 1.32126 43.6015 1.46881C43.4796 1.60966 43.3848 1.77733 43.3171 1.97183C43.2493 2.15962 43.2155 2.35748 43.2155 2.56539C43.2155 2.77331 43.2493 2.97451 43.3171 3.16901C43.3848 3.35681 43.4796 3.52448 43.6015 3.67203C43.7302 3.81288 43.886 3.92689 44.0689 4.01408C44.2517 4.09457 44.4583 4.13481 44.6886 4.13481C44.9188 4.13481 45.1254 4.09457 45.3083 4.01408C45.4979 3.92689 45.6537 3.81288 45.7756 3.67203C45.9043 3.52448 46.0025 3.35681 46.0702 3.16901C46.1379 2.97451 46.1718 2.77331 46.1718 2.56539Z" fill="#8D8B86"/>
<path d="M1.53403 14.5875C1.74398 14.5875 1.94039 14.6076 2.12326 14.6479L3.53538 12.7163H4.87638L3.16965 15C3.65728 15.2347 4.03995 15.5667 4.31763 15.996C4.59531 16.4252 4.81542 16.9551 4.97797 17.5855H3.63697C3.55569 17.2032 3.45072 16.8846 3.32203 16.6298C3.20012 16.3749 3.05112 16.1704 2.87503 16.0161C2.70571 15.8618 2.5093 15.7478 2.2858 15.674C2.06908 15.6003 1.81848 15.5567 1.53403 15.5433V17.5855H0.314933V12.7163H1.53403V14.5875Z" fill="#8D8B86"/>
<path d="M11.2087 15.1408C11.2087 15.5231 11.1376 15.8753 10.9953 16.1972C10.8599 16.5124 10.6703 16.784 10.4264 17.0121C10.1894 17.2401 9.90493 17.4178 9.57307 17.5453C9.24798 17.666 8.89579 17.7264 8.51652 17.7264C8.13725 17.7264 7.78506 17.666 7.45997 17.5453C7.13488 17.4178 6.85042 17.2401 6.60661 17.0121C6.36956 16.784 6.17992 16.5124 6.03769 16.1972C5.90224 15.8753 5.83451 15.5231 5.83451 15.1408C5.83451 14.7586 5.90224 14.4098 6.03769 14.0946C6.17992 13.7793 6.36956 13.5111 6.60661 13.2897C6.85042 13.0617 7.13488 12.8873 7.45997 12.7666C7.78506 12.6392 8.13725 12.5755 8.51652 12.5755C8.89579 12.5755 9.24798 12.6392 9.57307 12.7666C9.90493 12.8873 10.1894 13.0617 10.4264 13.2897C10.6703 13.5111 10.8599 13.7793 10.9953 14.0946C11.1376 14.4098 11.2087 14.7586 11.2087 15.1408ZM9.99975 15.1408C9.99975 14.9329 9.96589 14.7351 9.89816 14.5473C9.83043 14.3528 9.73223 14.1851 9.60355 14.0443C9.48164 13.8967 9.32586 13.7827 9.13623 13.7022C8.95336 13.615 8.74679 13.5714 8.51652 13.5714C8.28625 13.5714 8.07968 13.615 7.89681 13.7022C7.71395 13.7827 7.55818 13.8967 7.42949 14.0443C7.30759 14.1851 7.21277 14.3528 7.14504 14.5473C7.07731 14.7351 7.04345 14.9329 7.04345 15.1408C7.04345 15.3488 7.07731 15.55 7.14504 15.7445C7.21277 15.9323 7.30759 16.0999 7.42949 16.2475C7.55818 16.3883 7.71395 16.5023 7.89681 16.5895C8.07968 16.67 8.28625 16.7103 8.51652 16.7103C8.74679 16.7103 8.95336 16.67 9.13623 16.5895C9.32586 16.5023 9.48164 16.3883 9.60355 16.2475C9.73223 16.0999 9.83043 15.9323 9.89816 15.7445C9.96589 15.55 9.99975 15.3488 9.99975 15.1408Z" fill="#8D8B86"/>
<path d="M13.6575 17.5855H12.4384V12.7163H13.6575V14.5875H15.8214V12.7163H17.0405V17.5855H15.8214V15.5332H13.6575V17.5855Z" fill="#8D8B86"/>
<path d="M17.9405 12.7163H22.2886V13.672H20.6936V17.5855H19.4745V13.672H17.9405V12.7163Z" fill="#8D8B86"/>
<path d="M26.7587 14.6781C26.7519 14.3293 26.6401 14.0376 26.4234 13.8028C26.2135 13.5681 25.9053 13.4507 25.4989 13.4507C25.3025 13.4507 25.123 13.4842 24.9605 13.5513C24.7979 13.6184 24.6557 13.7089 24.5338 13.8229C24.4119 13.9302 24.3137 14.061 24.2392 14.2153C24.1715 14.3628 24.1308 14.5171 24.1173 14.6781H26.7587ZM27.9168 15.1207C27.9168 15.1744 27.9168 15.2314 27.9168 15.2917C27.9168 15.3521 27.9134 15.4125 27.9066 15.4728H24.1071C24.1139 15.6539 24.1579 15.8249 24.2392 15.9859C24.3205 16.1469 24.4254 16.2844 24.5541 16.3984C24.6896 16.5124 24.842 16.603 25.0113 16.67C25.1806 16.7371 25.3635 16.7706 25.5599 16.7706C25.8647 16.7706 26.1288 16.7069 26.3523 16.5795C26.5758 16.452 26.7485 16.2978 26.8704 16.1167L27.7339 16.6901C27.4766 17.0389 27.1616 17.3005 26.7891 17.4748C26.4234 17.6425 26.0103 17.7264 25.5497 17.7264C25.184 17.7264 24.8386 17.666 24.5135 17.5453C24.1952 17.4245 23.9175 17.2535 23.6804 17.0322C23.4434 16.8109 23.2571 16.5426 23.1217 16.2274C22.9862 15.9121 22.9185 15.5567 22.9185 15.161C22.9185 14.7787 22.9828 14.4299 23.1115 14.1147C23.247 13.7928 23.4298 13.5178 23.6601 13.2897C23.8972 13.0617 24.1715 12.8873 24.483 12.7666C24.7946 12.6392 25.1332 12.5755 25.4989 12.5755C25.8714 12.5755 26.2067 12.6392 26.5047 12.7666C26.8027 12.8873 27.0567 13.0583 27.2666 13.2797C27.4766 13.501 27.6357 13.7693 27.7441 14.0845C27.8592 14.393 27.9168 14.7384 27.9168 15.1207Z" fill="#8D8B86"/>
<path d="M30.3546 17.5855H29.1355V12.7163H30.3546V14.5875H32.5185V12.7163H33.7376V17.5855H32.5185V15.5332H30.3546V17.5855Z" fill="#8D8B86"/>
<path d="M34.6375 12.7163H38.9856V13.672H37.3907V17.5855H36.1716V13.672H34.6375V12.7163Z" fill="#8D8B86"/>
<path d="M41.9827 15.6237H39.5445V14.5976H41.9827V15.6237Z" fill="#8D8B86"/>
<path d="M44.2107 12.7163L46.0698 14.9195L47.8984 12.7163H48.9652V17.5855H47.7461V14.4064L46.2019 16.3984H45.9174L44.3631 14.4366V17.5855H43.144V12.7163H44.2107Z" fill="#8D8B86"/>
<path d="M53.4525 14.4467C53.4525 14.1247 53.3543 13.8867 53.1579 13.7324C52.9614 13.5781 52.7007 13.501 52.3756 13.501C52.1182 13.501 51.871 13.5513 51.634 13.6519C51.4037 13.7525 51.2073 13.8799 51.0448 14.0342L50.4149 13.34C50.6655 13.1053 50.9703 12.9209 51.3292 12.7867C51.6949 12.6459 52.081 12.5755 52.4874 12.5755C53.1308 12.5755 53.632 12.7264 53.9909 13.0282C54.3499 13.33 54.5463 13.8028 54.5801 14.4467C54.5869 14.5406 54.5903 14.6345 54.5903 14.7284C54.5971 14.8223 54.6005 14.9195 54.6005 15.0201V16.5594C54.6005 16.7337 54.6038 16.9115 54.6106 17.0926C54.6174 17.2669 54.6275 17.4313 54.6411 17.5855H53.5236C53.5168 17.4849 53.51 17.381 53.5033 17.2736C53.4965 17.1663 53.4931 17.0557 53.4931 16.9417H53.4728C53.2967 17.1965 53.0766 17.3877 52.8124 17.5151C52.5483 17.6425 52.2435 17.7062 51.8981 17.7062C51.7085 17.7062 51.5087 17.6794 51.2987 17.6258C51.0956 17.5721 50.9093 17.4883 50.74 17.3742C50.5707 17.2535 50.4284 17.0993 50.3133 16.9115C50.2049 16.717 50.1508 16.4789 50.1508 16.1972C50.1508 15.835 50.2456 15.5466 50.4352 15.332C50.6316 15.1174 50.8856 14.9531 51.1971 14.839C51.5155 14.725 51.871 14.6512 52.2639 14.6177C52.6567 14.5842 53.0529 14.5674 53.4525 14.5674V14.4467ZM53.2696 15.3219C53.0393 15.3219 52.8057 15.332 52.5686 15.3521C52.3384 15.3722 52.1284 15.4125 51.9388 15.4728C51.7559 15.5265 51.6035 15.6103 51.4816 15.7243C51.3665 15.8317 51.3089 15.9759 51.3089 16.1569C51.3089 16.2911 51.336 16.4017 51.3902 16.4889C51.4444 16.5761 51.5121 16.6465 51.5934 16.7002C51.6814 16.7539 51.7796 16.7941 51.888 16.8209C51.9963 16.841 52.1047 16.8511 52.2131 16.8511C52.6194 16.8511 52.931 16.7304 53.1477 16.4889C53.3644 16.2408 53.4728 15.9356 53.4728 15.5734V15.3219H53.2696Z" fill="#8D8B86"/>
<path d="M57.3006 20H56.0815V12.7163H57.2498V13.4205H57.2802C57.4563 13.1657 57.6934 12.9645 57.9914 12.8169C58.2894 12.6626 58.6179 12.5855 58.9768 12.5855C59.3493 12.5855 59.6846 12.6526 59.9826 12.7867C60.2806 12.9209 60.5345 13.1053 60.7445 13.34C60.9545 13.5681 61.117 13.8397 61.2321 14.1549C61.3473 14.4634 61.4048 14.7921 61.4048 15.1408C61.4048 15.4896 61.3473 15.8216 61.2321 16.1368C61.1238 16.4453 60.9646 16.717 60.7547 16.9517C60.5447 17.1865 60.2873 17.3742 59.9826 17.5151C59.6846 17.6492 59.3493 17.7163 58.9768 17.7163C58.6517 17.7163 58.3368 17.6492 58.032 17.5151C57.734 17.3742 57.497 17.1764 57.3209 16.9215H57.3006V20ZM60.1959 15.1408C60.1959 14.9329 60.162 14.7351 60.0943 14.5473C60.0334 14.3528 59.9419 14.1851 59.82 14.0443C59.6981 13.8967 59.5457 13.7827 59.3629 13.7022C59.18 13.615 58.9667 13.5714 58.7228 13.5714C58.4993 13.5714 58.2962 13.615 58.1133 13.7022C57.9304 13.7827 57.7713 13.8967 57.6358 14.0443C57.5071 14.1851 57.4055 14.3528 57.331 14.5473C57.2633 14.7351 57.2294 14.9329 57.2294 15.1408C57.2294 15.3555 57.2633 15.56 57.331 15.7545C57.4055 15.9423 57.5071 16.1066 57.6358 16.2475C57.7713 16.3883 57.9304 16.5023 58.1133 16.5895C58.2962 16.67 58.4993 16.7103 58.7228 16.7103C58.9667 16.7103 59.18 16.67 59.3629 16.5895C59.5457 16.5023 59.6981 16.3883 59.82 16.2475C59.9419 16.0999 60.0334 15.9323 60.0943 15.7445C60.162 15.55 60.1959 15.3488 60.1959 15.1408Z" fill="#8D8B86"/>
<path d="M63.8579 14.5875C64.0678 14.5875 64.2642 14.6076 64.4471 14.6479L65.8592 12.7163H67.2002L65.4935 15C65.9811 15.2347 66.3638 15.5667 66.6415 15.996C66.9192 16.4252 67.1393 16.9551 67.3018 17.5855H65.9608C65.8795 17.2032 65.7746 16.8846 65.6459 16.6298C65.524 16.3749 65.375 16.1704 65.1989 16.0161C65.0296 15.8618 64.8332 15.7478 64.6096 15.674C64.3929 15.6003 64.1423 15.5567 63.8579 15.5433V17.5855H62.6388V12.7163H63.8579V14.5875Z" fill="#8D8B86"/>
<path d="M71.9985 14.6781C71.9917 14.3293 71.88 14.0376 71.6633 13.8028C71.4533 13.5681 71.1451 13.4507 70.7388 13.4507C70.5424 13.4507 70.3629 13.4842 70.2003 13.5513C70.0378 13.6184 69.8956 13.7089 69.7737 13.8229C69.6517 13.9302 69.5535 14.061 69.479 14.2153C69.4113 14.3628 69.3707 14.5171 69.3571 14.6781H71.9985ZM73.1566 15.1207C73.1566 15.1744 73.1566 15.2314 73.1566 15.2917C73.1566 15.3521 73.1533 15.4125 73.1465 15.4728H69.347C69.3537 15.6539 69.3978 15.8249 69.479 15.9859C69.5603 16.1469 69.6653 16.2844 69.794 16.3984C69.9294 16.5124 70.0818 16.603 70.2511 16.67C70.4205 16.7371 70.6033 16.7706 70.7997 16.7706C71.1045 16.7706 71.3686 16.7069 71.5921 16.5795C71.8156 16.452 71.9883 16.2978 72.1103 16.1167L72.9738 16.6901C72.7164 17.0389 72.4015 17.3005 72.029 17.4748C71.6633 17.6425 71.2501 17.7264 70.7896 17.7264C70.4238 17.7264 70.0784 17.666 69.7533 17.5453C69.435 17.4245 69.1573 17.2535 68.9203 17.0322C68.6833 16.8109 68.497 16.5426 68.3615 16.2274C68.2261 15.9121 68.1584 15.5567 68.1584 15.161C68.1584 14.7787 68.2227 14.4299 68.3514 14.1147C68.4868 13.7928 68.6697 13.5178 68.9 13.2897C69.137 13.0617 69.4113 12.8873 69.7229 12.7666C70.0344 12.6392 70.373 12.5755 70.7388 12.5755C71.1113 12.5755 71.4465 12.6392 71.7445 12.7666C72.0425 12.8873 72.2965 13.0583 72.5065 13.2797C72.7164 13.501 72.8756 13.7693 72.9839 14.0845C73.0991 14.393 73.1566 14.7384 73.1566 15.1207Z" fill="#8D8B86"/>
<path d="M73.776 12.7163H78.1241V13.672H76.5291V17.5855H75.31V13.672H73.776V12.7163Z" fill="#8D8B86"/>
<path d="M82.7973 14.2555L80.2576 17.5855H79.0283V12.7163H80.2576V15.9658L82.7973 12.7163H84.0266V17.5855H82.7973V14.2555Z" fill="#8D8B86"/>
<path d="M86.7457 17.5855H85.5266V12.7163H86.7457V14.5875H88.9096V12.7163H90.1287V17.5855H88.9096V15.5332H86.7457V17.5855Z" fill="#8D8B86"/>
<path d="M92.8471 17.5855H91.628V12.7163H94.9094V13.662H92.8471V17.5855Z" fill="#8D8B86"/>
<path d="M98.8114 14.4467C98.8114 14.1247 98.7132 13.8867 98.5168 13.7324C98.3204 13.5781 98.0596 13.501 97.7345 13.501C97.4771 13.501 97.2299 13.5513 96.9929 13.6519C96.7626 13.7525 96.5662 13.8799 96.4037 14.0342L95.7738 13.34C96.0244 13.1053 96.3292 12.9209 96.6881 12.7867C97.0538 12.6459 97.4399 12.5755 97.8463 12.5755C98.4897 12.5755 98.9909 12.7264 99.3498 13.0282C99.7088 13.33 99.9052 13.8028 99.939 14.4467C99.9458 14.5406 99.9492 14.6345 99.9492 14.7284C99.956 14.8223 99.9594 14.9195 99.9594 15.0201V16.5594C99.9594 16.7337 99.9627 16.9115 99.9695 17.0926C99.9763 17.2669 99.9865 17.4313 100 17.5855H98.8825C98.8757 17.4849 98.8689 17.381 98.8622 17.2736C98.8554 17.1663 98.852 17.0557 98.852 16.9417H98.8317C98.6556 17.1965 98.4355 17.3877 98.1713 17.5151C97.9072 17.6425 97.6024 17.7062 97.257 17.7062C97.0674 17.7062 96.8676 17.6794 96.6576 17.6258C96.4545 17.5721 96.2682 17.4883 96.0989 17.3742C95.9296 17.2535 95.7873 17.0993 95.6722 16.9115C95.5638 16.717 95.5097 16.4789 95.5097 16.1972C95.5097 15.835 95.6045 15.5466 95.7941 15.332C95.9905 15.1174 96.2445 14.9531 96.556 14.839C96.8744 14.725 97.2299 14.6512 97.6228 14.6177C98.0156 14.5842 98.4118 14.5674 98.8114 14.5674V14.4467ZM98.6285 15.3219C98.3982 15.3219 98.1646 15.332 97.9275 15.3521C97.6973 15.3722 97.4873 15.4125 97.2977 15.4728C97.1148 15.5265 96.9624 15.6103 96.8405 15.7243C96.7254 15.8317 96.6678 15.9759 96.6678 16.1569C96.6678 16.2911 96.6949 16.4017 96.7491 16.4889C96.8033 16.5761 96.871 16.6465 96.9523 16.7002C97.0403 16.7539 97.1385 16.7941 97.2469 16.8209C97.3552 16.841 97.4636 16.8511 97.572 16.8511C97.9783 16.8511 98.2899 16.7304 98.5066 16.4889C98.7233 16.2408 98.8317 15.9356 98.8317 15.5734V15.3219H98.6285Z" fill="#8D8B86"/>
</svg>
