<svg width="181" height="45" viewBox="0 0 181 45" fill="none" xmlns="http://www.w3.org/2000/svg">
<path d="M0 43.8V0H6.48V43.8H0Z" fill="black"/>
<path d="M19.1039 31.56C19.5839 33.84 20.6839 35.6 22.4039 36.84C24.1239 38.04 26.2239 38.64 28.7039 38.64C32.1439 38.64 34.7239 37.4 36.4439 34.92L41.7839 38.04C38.8239 42.4 34.4439 44.58 28.6439 44.58C23.7639 44.58 19.8239 43.1 16.8239 40.14C13.8239 37.14 12.3239 33.36 12.3239 28.8C12.3239 24.32 13.8039 20.58 16.7639 17.58C19.7239 14.54 23.5239 13.02 28.1639 13.02C32.5639 13.02 36.1639 14.56 38.9639 17.64C41.8039 20.72 43.2239 24.46 43.2239 28.86C43.2239 29.54 43.1439 30.44 42.9839 31.56H19.1039ZM19.0439 26.28H36.6839C36.2439 23.84 35.2239 22 33.6239 20.76C32.0639 19.52 30.2239 18.9 28.1039 18.9C25.7039 18.9 23.7039 19.56 22.1039 20.88C20.5039 22.2 19.4839 24 19.0439 26.28Z" fill="black"/>
<path d="M64.7283 20.04H57.2883V34.44C57.2883 35.68 57.5683 36.58 58.1283 37.14C58.6883 37.66 59.5083 37.96 60.5883 38.04C61.7083 38.08 63.0883 38.06 64.7283 37.98V43.8C59.7683 44.4 56.2083 43.98 54.0483 42.54C51.8883 41.06 50.8083 38.36 50.8083 34.44V20.04H45.2883V13.8H50.8083V7.32L57.2883 5.4V13.8H64.7283V20.04Z" fill="black"/>
<path d="M85.9392 20.04H78.4992V34.44C78.4992 35.68 78.7792 36.58 79.3392 37.14C79.8992 37.66 80.7192 37.96 81.7992 38.04C82.9192 38.08 84.2992 38.06 85.9392 37.98V43.8C80.9792 44.4 77.4192 43.98 75.2592 42.54C73.0992 41.06 72.0192 38.36 72.0192 34.44V20.04H66.4992V13.8H72.0192V7.32L78.4992 5.4V13.8H85.9392V20.04Z" fill="black"/>
<path d="M95.6859 31.56C96.1659 33.84 97.2659 35.6 98.9859 36.84C100.706 38.04 102.806 38.64 105.286 38.64C108.726 38.64 111.306 37.4 113.026 34.92L118.366 38.04C115.406 42.4 111.026 44.58 105.226 44.58C100.346 44.58 96.4059 43.1 93.4059 40.14C90.4059 37.14 88.9059 33.36 88.9059 28.8C88.9059 24.32 90.3859 20.58 93.3459 17.58C96.3059 14.54 100.106 13.02 104.746 13.02C109.146 13.02 112.746 14.56 115.546 17.64C118.386 20.72 119.806 24.46 119.806 28.86C119.806 29.54 119.726 30.44 119.566 31.56H95.6859ZM95.6259 26.28H113.266C112.826 23.84 111.806 22 110.206 20.76C108.646 19.52 106.806 18.9 104.686 18.9C102.286 18.9 100.286 19.56 98.6859 20.88C97.0859 22.2 96.0659 24 95.6259 26.28Z" fill="black"/>
<path d="M131.988 18.84C133.628 15.12 136.708 13.26 141.228 13.26V20.28C138.748 20.12 136.588 20.72 134.748 22.08C132.908 23.4 131.988 25.6 131.988 28.68V43.8H125.508V13.8H131.988V18.84Z" fill="black"/>
<path d="M150.781 22.08C150.781 23.08 151.321 23.88 152.401 24.48C153.521 25.04 154.861 25.54 156.421 25.98C158.021 26.38 159.621 26.86 161.221 27.42C162.821 27.98 164.161 28.94 165.241 30.3C166.361 31.62 166.921 33.3 166.921 35.34C166.921 38.22 165.801 40.48 163.561 42.12C161.361 43.76 158.581 44.58 155.221 44.58C152.261 44.58 149.721 43.96 147.601 42.72C145.481 41.48 143.941 39.76 142.981 37.56L148.561 34.32C149.601 37.2 151.821 38.64 155.221 38.64C158.621 38.64 160.321 37.52 160.321 35.28C160.321 34.32 159.761 33.54 158.641 32.94C157.561 32.34 156.221 31.84 154.621 31.44C153.061 31 151.481 30.5 149.881 29.94C148.281 29.38 146.921 28.46 145.801 27.18C144.721 25.86 144.181 24.2 144.181 22.2C144.181 19.44 145.221 17.22 147.301 15.54C149.421 13.86 152.041 13.02 155.161 13.02C157.641 13.02 159.841 13.58 161.761 14.7C163.721 15.78 165.221 17.3 166.261 19.26L160.801 22.32C159.761 20.04 157.881 18.9 155.161 18.9C153.921 18.9 152.881 19.18 152.041 19.74C151.201 20.26 150.781 21.04 150.781 22.08Z" fill="black"/>
<path d="M179.111 43.2C178.231 44.08 177.171 44.52 175.931 44.52C174.691 44.52 173.631 44.08 172.751 43.2C171.871 42.32 171.431 41.26 171.431 40.02C171.431 38.78 171.851 37.72 172.691 36.84C173.571 35.96 174.651 35.52 175.931 35.52C177.171 35.52 178.231 35.96 179.111 36.84C179.991 37.72 180.431 38.78 180.431 40.02C180.431 41.26 179.991 42.32 179.111 43.2Z" fill="#FA3600"/>
</svg>
