<svg width="21" height="12" viewBox="0 0 21 12" fill="none" xmlns="http://www.w3.org/2000/svg">
<mask id="path-1-inside-1_5255_382" fill="white">
<path d="M7.15907 7.84618H3.34093C3.05456 7.84618 2.86367 8.03082 2.86367 8.30771C2.86367 8.5846 3.0546 8.76924 3.34093 8.76924H7.15911C7.44548 8.76924 7.63637 8.5846 7.63637 8.30771C7.63637 8.03082 7.44544 7.84618 7.15907 7.84618Z"/>
<path d="M5.72726 5.53851H1.90907C1.6227 5.53851 1.43181 5.72315 1.43181 6.00004C1.43181 6.27693 1.62274 6.46157 1.90907 6.46157H5.72726C6.01363 6.46157 6.20452 6.27693 6.20452 6.00004C6.20452 5.72315 6.01363 5.53851 5.72726 5.53851Z"/>
<path d="M4.29544 3.2308H0.477258C0.190928 3.2308 0 3.4154 0 3.69233C0 3.96926 0.190928 4.15386 0.477258 4.15386H4.29544C4.58181 4.15386 4.7727 3.96922 4.7727 3.69233C4.7727 3.41544 4.58181 3.2308 4.29544 3.2308Z"/>
<path d="M18.9954 2.03078C18.8523 1.84614 18.5182 1.80002 18.3273 1.93848L13.2682 5.67698C12.7432 6.04621 12.0273 6.04621 11.5023 5.67698L6.44319 1.93848C6.25226 1.80002 5.91819 1.80002 5.775 2.03078C5.63181 2.21541 5.63181 2.53847 5.87044 2.67694L10.9773 6.41544C11.4068 6.7385 11.9318 6.87696 12.4091 6.87696C12.8863 6.87696 13.4591 6.7385 13.8409 6.41544L18.9 2.67694C19.0909 2.53847 19.1386 2.21541 18.9954 2.03078Z"/>
<path d="M19.5682 0H4.29544C4.00907 0 3.81819 0.184634 3.81819 0.461526C3.81819 0.738418 4.00907 0.923092 4.29544 0.923092H19.5682C19.8546 0.923092 20.0454 1.10773 20.0454 1.38462V10.6154C20.0454 10.8924 19.8545 11.0769 19.5682 11.0769H4.29544C4.00907 11.0769 3.81819 11.2616 3.81819 11.5385C3.81819 11.8154 4.00911 12 4.29544 12H19.5682C20.3796 12 21 11.4 21 10.6154V1.38462C21 0.600032 20.3796 0 19.5682 0Z"/>
<path d="M18.9477 9.36927L16.0841 6.60003C15.8932 6.4154 15.6069 6.4154 15.4159 6.60003C15.225 6.78467 15.225 7.06156 15.4159 7.24619L18.2796 10.0154C18.375 10.1077 18.5182 10.1539 18.6136 10.1539C18.7091 10.1539 18.8523 10.1077 18.9477 10.0154C19.1386 9.83083 19.1386 9.5539 18.9477 9.36927Z"/>
</mask>
<path d="M7.15907 7.84618H3.34093C3.05456 7.84618 2.86367 8.03082 2.86367 8.30771C2.86367 8.5846 3.0546 8.76924 3.34093 8.76924H7.15911C7.44548 8.76924 7.63637 8.5846 7.63637 8.30771C7.63637 8.03082 7.44544 7.84618 7.15907 7.84618Z" fill="white"/>
<path d="M5.72726 5.53851H1.90907C1.6227 5.53851 1.43181 5.72315 1.43181 6.00004C1.43181 6.27693 1.62274 6.46157 1.90907 6.46157H5.72726C6.01363 6.46157 6.20452 6.27693 6.20452 6.00004C6.20452 5.72315 6.01363 5.53851 5.72726 5.53851Z" fill="white"/>
<path d="M4.29544 3.2308H0.477258C0.190928 3.2308 0 3.4154 0 3.69233C0 3.96926 0.190928 4.15386 0.477258 4.15386H4.29544C4.58181 4.15386 4.7727 3.96922 4.7727 3.69233C4.7727 3.41544 4.58181 3.2308 4.29544 3.2308Z" fill="white"/>
<path d="M18.9954 2.03078C18.8523 1.84614 18.5182 1.80002 18.3273 1.93848L13.2682 5.67698C12.7432 6.04621 12.0273 6.04621 11.5023 5.67698L6.44319 1.93848C6.25226 1.80002 5.91819 1.80002 5.775 2.03078C5.63181 2.21541 5.63181 2.53847 5.87044 2.67694L10.9773 6.41544C11.4068 6.7385 11.9318 6.87696 12.4091 6.87696C12.8863 6.87696 13.4591 6.7385 13.8409 6.41544L18.9 2.67694C19.0909 2.53847 19.1386 2.21541 18.9954 2.03078Z" fill="white"/>
<path d="M19.5682 0H4.29544C4.00907 0 3.81819 0.184634 3.81819 0.461526C3.81819 0.738418 4.00907 0.923092 4.29544 0.923092H19.5682C19.8546 0.923092 20.0454 1.10773 20.0454 1.38462V10.6154C20.0454 10.8924 19.8545 11.0769 19.5682 11.0769H4.29544C4.00907 11.0769 3.81819 11.2616 3.81819 11.5385C3.81819 11.8154 4.00911 12 4.29544 12H19.5682C20.3796 12 21 11.4 21 10.6154V1.38462C21 0.600032 20.3796 0 19.5682 0Z" fill="white"/>
<path d="M18.9477 9.36927L16.0841 6.60003C15.8932 6.4154 15.6069 6.4154 15.4159 6.60003C15.225 6.78467 15.225 7.06156 15.4159 7.24619L18.2796 10.0154C18.375 10.1077 18.5182 10.1539 18.6136 10.1539C18.7091 10.1539 18.8523 10.1077 18.9477 10.0154C19.1386 9.83083 19.1386 9.5539 18.9477 9.36927Z" fill="white"/>
<path d="M18.3273 1.93848L17.7401 1.12893L17.733 1.13424L18.3273 1.93848ZM13.2682 5.67698L13.8435 6.49494L13.8531 6.48819L13.8625 6.48122L13.2682 5.67698ZM11.5023 5.67698L10.908 6.48122L10.9174 6.48819L10.927 6.49494L11.5023 5.67698ZM6.44319 1.93848L7.03752 1.13421L7.03027 1.12896L6.44319 1.93848ZM5.775 2.03078L6.56522 2.6436L6.5972 2.60236L6.62472 2.55802L5.775 2.03078ZM5.87044 2.67694L6.46114 1.87004L6.41827 1.83867L6.37233 1.812L5.87044 2.67694ZM10.9773 6.41544L11.5784 5.61617L11.568 5.60854L10.9773 6.41544ZM13.8409 6.41544L13.2466 5.6112L13.2201 5.63077L13.195 5.65204L13.8409 6.41544ZM18.9 2.67694L18.3129 1.86738L18.3057 1.8727L18.9 2.67694ZM18.9477 9.36927L19.643 8.65049L19.6429 8.65041L18.9477 9.36927ZM16.0841 6.60003L15.389 7.31889L16.0841 6.60003ZM15.4159 7.24619L14.7208 7.96505L15.4159 7.24619ZM18.2796 10.0154L18.9747 9.29657L18.2796 10.0154ZM18.9477 10.0154L19.6427 10.7344L19.6429 10.7343L18.9477 10.0154ZM7.15907 7.84618V6.84618H3.34093V7.84618V8.84618H7.15907V7.84618ZM3.34093 7.84618V6.84618C2.98033 6.84618 2.59789 6.96592 2.29973 7.25428C1.99856 7.54553 1.86367 7.93174 1.86367 8.30771H2.86367H3.86367C3.86367 8.40679 3.82422 8.56223 3.69009 8.69195C3.55896 8.81876 3.41515 8.84618 3.34093 8.84618V7.84618ZM2.86367 8.30771H1.86367C1.86367 8.68374 1.99861 9.06994 2.29977 9.36116C2.59791 9.64948 2.98032 9.76924 3.34093 9.76924V8.76924V7.76924C3.4152 7.76924 3.55899 7.79668 3.69008 7.92345C3.82419 8.05314 3.86367 8.20857 3.86367 8.30771H2.86367ZM3.34093 8.76924V9.76924H7.15911V8.76924V7.76924H3.34093V8.76924ZM7.15911 8.76924V9.76924C7.51971 9.76924 7.90215 9.6495 8.20031 9.36114C8.50148 9.06989 8.63637 8.68368 8.63637 8.30771H7.63637H6.63637C6.63637 8.20863 6.67582 8.05319 6.80995 7.92347C6.94108 7.79666 7.08489 7.76924 7.15911 7.76924V8.76924ZM7.63637 8.30771H8.63637C8.63637 7.93168 8.50142 7.54547 8.20025 7.25424C7.90208 6.96592 7.51966 6.84618 7.15907 6.84618V7.84618V8.84618C7.08485 8.84618 6.94108 8.81877 6.80997 8.69199C6.67585 8.5623 6.63637 8.40685 6.63637 8.30771H7.63637ZM5.72726 5.53851V4.53851H1.90907V5.53851V6.53851H5.72726V5.53851ZM1.90907 5.53851V4.53851C1.54847 4.53851 1.16604 4.65825 0.867872 4.94661C0.566707 5.23786 0.431814 5.62407 0.431814 6.00004H1.43181H2.43181C2.43181 6.09912 2.39236 6.25456 2.25824 6.38428C2.12711 6.51109 1.9833 6.53851 1.90907 6.53851V5.53851ZM1.43181 6.00004H0.431814C0.431814 6.37607 0.566759 6.76227 0.86791 7.05349C1.16605 7.34181 1.54847 7.46157 1.90907 7.46157V6.46157V5.46157C1.98335 5.46157 2.12713 5.48901 2.25823 5.61578C2.39233 5.74547 2.43181 5.9009 2.43181 6.00004H1.43181ZM1.90907 6.46157V7.46157H5.72726V6.46157V5.46157H1.90907V6.46157ZM5.72726 6.46157V7.46157C6.08786 7.46157 6.47029 7.34183 6.76846 7.05347C7.06962 6.76222 7.20452 6.37601 7.20452 6.00004H6.20452H5.20452C5.20452 5.90096 5.24397 5.74552 5.3781 5.6158C5.50922 5.48899 5.65303 5.46157 5.72726 5.46157V6.46157ZM6.20452 6.00004H7.20452C7.20452 5.62407 7.06962 5.23786 6.76846 4.94661C6.47029 4.65825 6.08786 4.53851 5.72726 4.53851V5.53851V6.53851C5.65303 6.53851 5.50922 6.51109 5.37809 6.38428C5.24397 6.25456 5.20452 6.09912 5.20452 6.00004H6.20452ZM4.29544 3.2308V2.2308H0.477258V3.2308V4.2308H4.29544V3.2308ZM0.477258 3.2308V2.2308C0.11671 2.2308 -0.265709 2.35051 -0.563882 2.63884C-0.865074 2.93009 -1 3.31631 -1 3.69233H0H1C1 3.79142 0.960538 3.94688 0.826392 4.07659C0.695266 4.20339 0.551476 4.2308 0.477258 4.2308V3.2308ZM0 3.69233H-1C-1 4.06835 -0.865074 4.45457 -0.563883 4.74582C-0.26571 5.03414 0.116709 5.15386 0.477258 5.15386V4.15386V3.15386C0.551477 3.15386 0.695267 3.18127 0.826393 3.30807C0.960538 3.43778 1 3.59324 1 3.69233H0ZM0.477258 4.15386V5.15386H4.29544V4.15386V3.15386H0.477258V4.15386ZM4.29544 4.15386V5.15386C4.65604 5.15386 5.03848 5.03411 5.33664 4.74576C5.63781 4.4545 5.7727 4.0683 5.7727 3.69233H4.7727H3.7727C3.7727 3.59325 3.81215 3.43781 3.94628 3.30809C4.07741 3.18128 4.22122 3.15386 4.29544 3.15386V4.15386ZM4.7727 3.69233H5.7727C5.7727 3.31636 5.63781 2.93015 5.33664 2.6389C5.03848 2.35054 4.65604 2.2308 4.29544 2.2308V3.2308V4.2308C4.22122 4.2308 4.07741 4.20338 3.94628 4.07657C3.81215 3.94685 3.7727 3.79141 3.7727 3.69233H4.7727ZM18.9954 2.03078L19.7857 1.41796C19.5147 1.0685 19.1287 0.916055 18.8161 0.872871C18.5025 0.829565 18.0938 0.872524 17.7402 1.12896L18.3273 1.93848L18.9143 2.748C18.7517 2.86597 18.6054 2.86276 18.5424 2.85406C18.4803 2.84549 18.333 2.80843 18.2052 2.6436L18.9954 2.03078ZM18.3273 1.93848L17.733 1.13424L12.6739 4.87274L13.2682 5.67698L13.8625 6.48122L18.9216 2.74272L18.3273 1.93848ZM13.2682 5.67698L12.6929 4.85901C12.513 4.98553 12.2574 4.98553 12.0775 4.85901L11.5023 5.67698L10.927 6.49494C11.7971 7.10689 12.9733 7.10689 13.8435 6.49494L13.2682 5.67698ZM11.5023 5.67698L12.0966 4.87274L7.03749 1.13424L6.44319 1.93848L5.84888 2.74272L10.908 6.48122L11.5023 5.67698ZM6.44319 1.93848L7.03027 1.12896C6.72615 0.908398 6.35036 0.818071 5.99949 0.850383C5.63328 0.884106 5.19653 1.06639 4.92528 1.50354L5.775 2.03078L6.62472 2.55802C6.49666 2.7644 6.29853 2.83131 6.18289 2.84196C6.08258 2.85119 5.9693 2.8301 5.8561 2.748L6.44319 1.93848ZM5.775 2.03078L4.98478 1.41796C4.75048 1.72008 4.64835 2.10356 4.68435 2.46917C4.72251 2.85664 4.92737 3.28587 5.36856 3.54187L5.87044 2.67694L6.37233 1.812C6.57489 1.92954 6.66043 2.12801 6.67473 2.27317C6.68687 2.39648 6.65634 2.52611 6.56522 2.6436L5.775 2.03078ZM5.87044 2.67694L5.27975 3.48383L10.3866 7.22233L10.9773 6.41544L11.568 5.60854L6.46114 1.87004L5.87044 2.67694ZM10.9773 6.41544L10.3762 7.21464C11.006 7.68828 11.7513 7.87696 12.4091 7.87696V6.87696V5.87696C12.1123 5.87696 11.8077 5.78872 11.5783 5.61623L10.9773 6.41544ZM12.4091 6.87696V7.87696C13.0302 7.87696 13.8645 7.70538 14.4868 7.17884L13.8409 6.41544L13.195 5.65204C13.0536 5.77161 12.7424 5.87696 12.4091 5.87696V6.87696ZM13.8409 6.41544L14.4352 7.21968L19.4943 3.48118L18.9 2.67694L18.3057 1.8727L13.2466 5.6112L13.8409 6.41544ZM18.9 2.67694L19.4871 3.48646C19.8453 3.22668 20.014 2.84435 20.0623 2.51728C20.1105 2.19094 20.0603 1.77206 19.7857 1.41796L18.9954 2.03078L18.2052 2.6436C18.0738 2.47413 18.0713 2.3091 18.0837 2.22506C18.0963 2.1403 18.1456 1.98873 18.3129 1.86742L18.9 2.67694ZM19.5682 0V-1H4.29544V0V1H19.5682V0ZM4.29544 0V-1C3.93484 -1 3.55241 -0.88026 3.25424 -0.591905C2.95308 -0.300649 2.81819 0.0855577 2.81819 0.461526H3.81819H4.81819C4.81819 0.560603 4.77874 0.716047 4.64461 0.845762C4.51348 0.972577 4.36967 1 4.29544 1V0ZM3.81819 0.461526H2.81819C2.81819 0.837486 2.95307 1.22368 3.2542 1.51493C3.55234 1.8033 3.93478 1.92309 4.29544 1.92309V0.923092V-0.0769077C4.36973 -0.0769077 4.51354 -0.0494567 4.64465 0.0773529C4.77874 0.207049 4.81819 0.362458 4.81819 0.461526H3.81819ZM4.29544 0.923092V1.92309H19.5682V0.923092V-0.0769077H4.29544V0.923092ZM19.5682 0.923092V1.92309C19.494 1.92309 19.3501 1.89567 19.219 1.76885C19.0849 1.63914 19.0454 1.48369 19.0454 1.38462H20.0454H21.0454C21.0454 1.00865 20.9106 0.622444 20.6094 0.331188C20.3112 0.0428325 19.9288 -0.0769077 19.5682 -0.0769077V0.923092ZM20.0454 1.38462H19.0454V10.6154H20.0454H21.0454V1.38462H20.0454ZM20.0454 10.6154H19.0454C19.0454 10.5163 19.0849 10.3609 19.219 10.2312C19.3502 10.1044 19.494 10.0769 19.5682 10.0769V11.0769V12.0769C19.9287 12.0769 20.3112 11.9572 20.6093 11.6689C20.9105 11.3777 21.0454 10.9914 21.0454 10.6154H20.0454ZM19.5682 11.0769V10.0769H4.29544V11.0769V12.0769H19.5682V11.0769ZM4.29544 11.0769V10.0769C3.93484 10.0769 3.55241 10.1967 3.25424 10.485C2.95308 10.7763 2.81819 11.1625 2.81819 11.5385H3.81819H4.81819C4.81819 11.6376 4.77874 11.793 4.64461 11.9227C4.51348 12.0495 4.36967 12.0769 4.29544 12.0769V11.0769ZM3.81819 11.5385H2.81819C2.81819 11.9145 2.95311 12.3007 3.2543 12.592C3.55248 12.8803 3.9349 13 4.29544 13V12V11C4.36966 11 4.51345 11.0274 4.64458 11.1542C4.77872 11.2839 4.81819 11.4394 4.81819 11.5385H3.81819ZM4.29544 12V13H19.5682V12V11H4.29544V12ZM19.5682 12V13C20.9 13 22 11.9836 22 10.6154H21H20C20 10.7352 19.956 10.8224 19.8932 10.8831C19.8291 10.9451 19.7229 11 19.5682 11V12ZM21 10.6154H22V1.38462H21H20V10.6154H21ZM21 1.38462H22C22 0.0164375 20.9 -1 19.5682 -1V0V1C19.7228 1 19.8291 1.05495 19.8932 1.11694C19.956 1.17765 20 1.26484 20 1.38462H21ZM18.9477 9.36927L19.6429 8.65041L16.7793 5.88118L16.0841 6.60003L15.389 7.31889L18.2526 10.0881L18.9477 9.36927ZM16.0841 6.60003L16.7793 5.88118C16.2007 5.32168 15.2993 5.32168 14.7208 5.88118L15.4159 6.60003L16.1111 7.31889C16.0225 7.40451 15.8935 7.46156 15.75 7.46156C15.6065 7.46156 15.4775 7.40451 15.389 7.31889L16.0841 6.60003ZM15.4159 6.60003L14.7208 5.88118C14.1234 6.45887 14.1234 7.38736 14.7208 7.96505L15.4159 7.24619L16.1111 6.52734C16.2003 6.61364 16.2727 6.75371 16.2727 6.92311C16.2727 7.09252 16.2003 7.23258 16.1111 7.31889L15.4159 6.60003ZM15.4159 7.24619L14.7208 7.96505L17.5844 10.7343L18.2796 10.0154L18.9747 9.29657L16.1111 6.52734L15.4159 7.24619ZM18.2796 10.0154L17.5844 10.7343C17.8817 11.0218 18.281 11.1539 18.6136 11.1539V10.1539V9.15389C18.7105 9.15389 18.7735 9.17353 18.8074 9.18663C18.8449 9.20115 18.9073 9.23137 18.9747 9.29657L18.2796 10.0154ZM18.6136 10.1539V11.1539C18.9463 11.1539 19.3455 11.0218 19.6427 10.7344L18.9477 10.0154L18.2527 9.29642C18.3201 9.23132 18.3824 9.20113 18.4199 9.18662C18.4537 9.17353 18.5168 9.15389 18.6136 9.15389V10.1539ZM18.9477 10.0154L19.6429 10.7343C20.2403 10.1566 20.2402 9.22812 19.643 8.65049L18.9477 9.36927L18.2525 10.088C18.1632 10.0017 18.0909 9.86166 18.0909 9.69236C18.0909 9.52306 18.1632 9.38297 18.2526 9.29657L18.9477 10.0154Z" fill="white" mask="url(#path-1-inside-1_5255_382)"/>
</svg>
